<svg width="22" height="22" viewBox="0 0 22 22" fill="none" xmlns="http://www.w3.org/2000/svg">
<path fill-rule="evenodd" clip-rule="evenodd" d="M13.0909 2H4.90909C3.63152 2.07479 2.42586 2.61603 1.52093 3.52096C0.616007 4.42588 0.0747907 5.63152 0 6.90909V15.0909C0.0747907 16.3685 0.616007 17.5741 1.52093 18.479C2.42586 19.384 3.63152 19.9252 4.90909 20H13.0909C14.3685 19.9254 15.5743 19.3842 16.4793 18.4792C17.3842 17.5743 17.9254 16.3685 18 15.0909V6.90909C17.9254 5.63146 17.3842 4.42572 16.4793 3.52076C15.5743 2.6158 14.3685 2.07462 13.0909 2V2ZM16.3636 15.0909C16.3238 15.9461 15.9662 16.7555 15.3609 17.3609C14.7555 17.9662 13.9461 18.3238 13.0909 18.3636H4.90909C4.05395 18.3238 3.24446 17.9662 2.63913 17.3609C2.03379 16.7555 1.6762 15.9461 1.63636 15.0909V6.90909C1.6762 6.05395 2.03379 5.24445 2.63913 4.63912C3.24446 4.03378 4.05395 3.6762 4.90909 3.63636H13.0909C13.9461 3.6762 14.7555 4.03378 15.3609 4.63912C15.9662 5.24445 16.3238 6.05395 16.3636 6.90909V15.0909ZM9 6.09091C8.02907 6.09091 7.07995 6.37881 6.27266 6.91823C5.46536 7.45765 4.83615 8.22437 4.46459 9.12139C4.09303 10.0184 3.99582 11.0054 4.18524 11.9577C4.37465 12.91 4.8422 13.7847 5.52875 14.4712C6.2153 15.1578 7.09001 15.6253 8.04228 15.8148C8.99455 16.0042 9.98161 15.907 10.8786 15.5354C11.7756 15.1638 12.5423 14.5347 13.0818 13.7274C13.6212 12.9201 13.9091 11.9709 13.9091 11C13.9091 9.69803 13.3919 8.4494 12.4713 7.52877C11.5506 6.60814 10.302 6.09091 9 6.09091ZM9.06627 14.2654C8.63098 14.2751 8.19813 14.1978 7.79314 14.0379C7.38814 13.8781 7.01917 13.639 6.70787 13.3345C6.39657 13.0301 6.14923 12.6666 5.98036 12.2653C5.81149 11.864 5.72451 11.433 5.72451 10.9976C5.72451 10.5622 5.81149 10.1311 5.98036 9.72983C6.14923 9.32851 6.39657 8.96497 6.70787 8.66056C7.01917 8.35615 7.38814 8.11698 7.79314 7.95714C8.19813 7.79729 8.63098 7.71998 9.06627 7.72972C9.93317 7.72983 10.7645 8.07431 11.3774 8.68738C11.9903 9.30044 12.3346 10.1319 12.3345 10.9988C12.3344 11.8656 11.9899 12.697 11.3768 13.3099C10.7638 13.9228 9.93235 14.2671 9.06546 14.267L9.06627 14.2654ZM13.5098 5.26539C13.226 5.26608 12.9513 5.36506 12.7323 5.54554C12.5133 5.72601 12.3636 5.97679 12.3087 6.2552C12.2538 6.53362 12.2971 6.82249 12.4312 7.07259C12.5653 7.32268 12.7819 7.51854 13.0442 7.6269C13.3065 7.73525 13.5982 7.74937 13.8697 7.66685C14.1412 7.58433 14.3757 7.41028 14.5334 7.17431C14.691 6.93834 14.762 6.65507 14.7342 6.37266C14.7065 6.09024 14.5817 5.82617 14.3812 5.62539C14.148 5.39787 13.8348 5.27118 13.509 5.27273L13.5098 5.26539Z" fill="white"/>
</svg>
