<svg width="250" height="103" viewBox="0 0 250 103" fill="none" xmlns="http://www.w3.org/2000/svg">
<path d="M179.4 40.0801H178.6C173.79 40.0801 169.04 41.3301 164.01 42.6501L162.52 43.0301L162.58 49.2901V71.6201H167.44V53.2301L167.58 46.0701L168.27 45.5101C170.422 43.8375 173.109 43.0025 175.83 43.1601C181.2 43.1601 184.95 47.6301 184.95 54.0201V71.6201H189.81V53.0001C189.81 42.1301 183.28 40.2401 179.4 40.0801Z" fill="#273D8B"/>
<path d="M218.76 43.41V40.08H210.83V31.23H206V61C206 65.14 206.71 67.8 208.27 69.42C209.097 70.2142 210.079 70.83 211.154 71.2291C212.229 71.6282 213.375 71.8021 214.52 71.74C215.962 71.755 217.401 71.6074 218.81 71.3V68.37C218.38 68.37 217.91 68.37 217.34 68.37C210.88 68.37 210.88 62.06 210.88 59.99V43.41H218.76Z" fill="#273D8B"/>
<path d="M144.37 40.0801C141.352 40.0783 138.353 40.5646 135.49 41.5201V43.5801C137.868 42.7237 140.373 42.2741 142.9 42.2501C143.458 42.2495 144.016 42.2863 144.57 42.3601C151.71 43.0701 152.27 48.3601 152.27 49.9501V52.5001L150.27 52.4401H149.27C147.84 52.4401 146.15 52.5301 144.51 52.7001C135.92 53.5401 131.57 56.6401 131.57 61.9001C131.57 68.3601 136.89 71.6401 147.39 71.6401H157.09V52.2201C157.14 43.9401 153.08 40.0801 144.37 40.0801ZM152.27 70.0801H150.34C148.255 70.1071 146.171 69.9969 144.1 69.7501C142.1 69.4601 136.1 68.5801 136.1 62.3701C136.1 60.0801 137.1 56.0101 144.1 54.6301C146.188 54.2529 148.308 54.0788 150.43 54.1101H152.36L152.27 70.0801Z" fill="#273D8B"/>
<path d="M100 40.0799C98.3445 40.0471 96.6981 40.3322 95.15 40.9199C91.45 42.4899 89.67 45.5599 89.7 50.3099L89.84 71.6699H94.94L94.82 53.5699C94.82 49.5199 94.75 43.3899 102.4 43.3399C103.09 43.3399 103.84 43.3399 104.66 43.4599V40.6199C103.131 40.2685 101.569 40.0874 100 40.0799Z" fill="#273D8B"/>
<path d="M31.66 56.2799C31.66 65.8599 37.92 71.8099 47.99 71.8099C50.1347 71.7943 52.2698 71.5224 54.35 70.9999V68.3199C52.824 68.6372 51.2686 68.7914 49.71 68.7799C42.2 68.7799 37 63.4899 37 55.9299C36.9377 54.2088 37.2197 52.4927 37.8293 50.882C38.4389 49.2713 39.3638 47.7985 40.55 46.5499C41.7616 45.3754 43.1966 44.456 44.7701 43.8462C46.3435 43.2364 48.0233 42.9486 49.71 42.9999C51.271 42.9816 52.8287 43.1495 54.35 43.4999V40.6399C52.7397 40.3172 51.1022 40.1498 49.46 40.1399C38.81 40.1399 31.66 46.6299 31.66 56.2799Z" fill="#273D8B"/>
<path d="M119.49 54.4299C115.38 52.9999 112 51.5899 112 47.8699C112 44.5199 114.71 42.3599 118.92 42.3599C120.784 42.3873 122.627 42.7532 124.36 43.4399V41.3799C122.348 40.5044 120.174 40.0615 117.98 40.0799C111.39 40.0799 107.3 43.4399 107.3 48.8999C107.18 53.1899 111.8 55.6199 115.7 56.8999C120.21 58.4199 122.82 60.0199 122.82 63.7299C122.82 67.2799 119.97 69.4099 115.21 69.4099C112.616 69.311 110.054 68.8013 107.62 67.8999V70.5999C110.06 71.3755 112.6 71.7866 115.16 71.8199C122.96 71.8199 127.62 68.5199 127.62 63.0099C127.54 58.9999 125.11 56.3799 119.49 54.4299Z" fill="#273D8B"/>
<path d="M72.43 40.0801H71.53C61.55 40.5301 57 48.8901 57 56.4701C57 65.4701 62.3 71.0901 71.43 71.7601H73.34C76.2996 71.77 79.2479 71.3935 82.11 70.6401V68.2801C79.6346 68.8497 77.0999 69.1216 74.56 69.0901C73.3826 69.083 72.2081 68.9726 71.05 68.7601C65.36 67.6001 61.89 63.7101 61.75 58.3501V56.3501H85.65C85.65 55.8901 85.65 55.3501 85.65 54.7301C85.67 51.3101 84.72 40.0801 72.43 40.0801ZM81.18 52.3901V54.2801H61.54L61.78 52.1401C62.26 47.6601 65.06 42.3401 71.27 42.1401H71.87C73.0713 42.0941 74.2693 42.2959 75.3892 42.7328C76.5092 43.1698 77.5273 43.8326 78.38 44.6801C80.26 46.8004 81.2613 49.5575 81.18 52.3901Z" fill="#273D8B"/>
<path d="M200.56 40.0801H195.4V71.6201H200.56V40.0801Z" fill="#273D8B"/>
<path d="M198 31.23C197.661 31.2103 197.322 31.2615 197.004 31.3804C196.686 31.4993 196.396 31.6832 196.154 31.9203C195.911 32.1575 195.72 32.4427 195.594 32.7578C195.468 33.0728 195.408 33.4108 195.42 33.75C195.461 34.4104 195.752 35.0303 196.234 35.4834C196.717 35.9365 197.353 36.1888 198.015 36.1888C198.677 36.1888 199.313 35.9365 199.796 35.4834C200.278 35.0303 200.569 34.4104 200.61 33.75C200.619 33.4089 200.557 33.0697 200.428 32.7539C200.299 32.4381 200.105 32.1526 199.86 31.9156C199.614 31.6786 199.322 31.4953 199.002 31.3772C198.682 31.2592 198.341 31.209 198 31.23Z" fill="#273D8B"/>
</svg>
