<svg width="141" height="58" viewBox="0 0 141 58" fill="none" xmlns="http://www.w3.org/2000/svg">
<path fill-rule="evenodd" clip-rule="evenodd" d="M128.98 5.46404V9.60766H138.008V14.4695H128.98V19.7723H141V24.6417H122.753V0.593883H139.775V5.46328H128.98V5.46404ZM115.712 0.593883V24.6417H109.479V14.4695H97.562V24.6417H91.3285V0.593883H97.562V9.60691H109.479V0.593883H115.712ZM71.7688 0C80.3047 0 87.2716 5.66903 87.2716 12.6215C87.2716 19.5741 80.3047 25.2431 71.7688 25.2431C63.2313 25.2431 56.2645 19.5741 56.2645 12.6215C56.2645 5.66903 63.2321 0 71.7688 0ZM71.7688 4.57622C76.3435 4.57622 80.0839 8.19229 80.0839 12.6215C80.0839 17.0516 76.3435 20.6601 71.7688 20.6601C67.1918 20.6601 63.4589 17.0516 63.4589 12.6215C63.4597 8.19229 67.1926 4.57622 71.7688 4.57622ZM31.7623 0.593883H43.6279C50.7198 0.593883 53.1104 4.46619 53.1104 8.07471C53.118 11.6832 51.475 13.9563 48.1747 15.1885L56.7551 24.6417H48.1611C44.9415 20.6081 41.7219 16.567 38.503 12.5334H42.4039C43.345 12.5326 44.2473 12.1584 44.9128 11.4931C45.5783 10.8277 45.9527 9.92545 45.9537 8.98438C45.9517 8.04354 45.5771 7.14181 44.9118 6.47654C44.2465 5.81126 43.3448 5.43663 42.4039 5.43464H37.989V24.6417H31.763V0.593883H31.7623ZM15.5035 0C19.3826 0 22.9324 1.16591 25.6538 3.08775V7.3414C22.0453 5.41203 18.6651 4.48804 15.5035 4.57622C10.9273 4.57622 7.19444 8.19229 7.19444 12.6215C7.19444 17.0516 10.9273 20.6601 15.5035 20.6601C17.0071 20.6601 18.4225 20.2712 19.6396 19.5967V12.813H26.0714V21.8411C23.2994 23.9536 19.5808 25.2438 15.5035 25.2438C6.96684 25.2438 6.11349e-08 19.5748 6.11349e-08 12.6223C-0.000753599 5.66903 6.96684 0 15.5035 0Z" fill="#2761AB"/>
<path fill-rule="evenodd" clip-rule="evenodd" d="M55.385 32.9806C60.3131 34.7909 65.4177 36.6623 71.4455 36.6623C77.4672 36.6623 82.571 34.7917 87.4992 32.9806C99.9813 28.3961 103.928 28.4187 116.483 32.8186C121.418 34.5422 126.523 36.3322 132.566 36.3322C134.348 36.3322 136.05 36.1701 137.678 35.892C136.968 36.8846 136.204 37.8369 135.389 38.7446C134.45 38.8265 133.508 38.8677 132.566 38.8682C126.12 38.8682 120.796 37.0059 115.654 35.2017C111.145 33.625 106.782 32.1004 102.013 32.0416H102.006H101.954H101.962C97.2251 32.1079 92.8682 33.6989 88.3727 35.3562C83.2327 37.2403 77.9081 39.1998 71.4462 39.1998C64.9783 39.1998 59.6537 37.2403 54.5205 35.3562C50.0174 33.6989 45.6612 32.1071 40.9237 32.0416H40.9313H40.8725C36.1056 32.1004 31.7419 33.6258 27.232 35.2017C22.0981 37.0067 16.7742 38.8682 10.3199 38.8682C9.29392 38.868 8.26856 38.8195 7.24718 38.7228C6.42463 37.8099 5.65562 36.8501 4.944 35.8483C6.71803 36.169 8.51708 36.3312 10.3199 36.3329C16.3635 36.3329 21.4748 34.543 26.403 32.8194C38.9567 28.4187 42.9028 28.3969 55.385 32.9806ZM55.385 42.2499C60.3131 44.0617 65.4177 45.9391 71.4455 45.9391C77.4672 45.9391 82.571 44.0625 87.4992 42.2499C99.9813 37.6661 103.928 37.6955 116.483 42.0969C120.098 43.357 123.809 44.6556 127.916 45.2645C126.911 45.9629 125.886 46.6329 124.844 47.2738C121.602 46.5631 118.595 45.5057 115.654 44.48C111.145 42.8958 106.782 41.3696 102.013 41.3184H102.006H101.954H101.962C97.2251 41.3772 92.8682 42.9757 88.3727 44.6262C83.2327 46.5194 77.9081 48.4699 71.4462 48.4699C64.9783 48.4699 59.6537 46.5194 54.5205 44.6262C50.0174 42.9764 45.6612 41.3772 40.9237 41.3184H40.9313H40.8725C36.1056 41.3696 31.7419 42.8965 27.232 44.48C24.24 45.5283 21.1816 46.5993 17.8738 47.3107C16.8221 46.667 15.7898 45.9919 14.7785 45.2864C18.9583 44.6993 22.7281 43.3789 26.403 42.0969C38.9567 37.6955 42.9028 37.6661 55.385 42.2499ZM55.385 51.5282C60.3131 53.3385 65.4177 55.2098 71.4455 55.2098C77.4672 55.2098 82.571 53.3393 87.4992 51.5282C99.9813 46.9445 103.928 46.9663 116.483 51.3662C116.593 51.4031 116.696 51.44 116.805 51.4762C115.658 51.991 114.499 52.4797 113.33 52.9421C109.627 51.688 105.96 50.6329 102.013 50.5884H102.006H101.954H101.962C97.2251 50.6547 92.8682 52.2532 88.3727 53.903C83.2327 55.7871 77.9081 57.7467 71.4462 57.7467C64.9783 57.7467 59.6537 55.7871 54.5205 53.903C50.0174 52.2532 45.6612 50.654 40.9237 50.5884H40.9313H40.8725C36.8834 50.6329 33.1791 51.7098 29.4395 52.9865C28.2667 52.5254 27.105 52.0366 25.9553 51.5207L26.403 51.3662C38.9567 46.9663 42.9028 46.9437 55.385 51.5282Z" fill="#82C4CE"/>
</svg>
