<svg width="130" height="130" viewBox="0 0 130 130" fill="none" xmlns="http://www.w3.org/2000/svg">
<path fill-rule="evenodd" clip-rule="evenodd" d="M111.884 44.7092H128.089L126.496 53.3655H119.917L118.392 61.5369H124.28L122.825 69.7089H116.938L110.637 105.097H101.012L111.884 44.7092ZM108.421 44.7092H98.5879L92.6313 76.4957C92.2166 78.6431 91.8699 80.027 91.5934 80.6502C91.2467 81.2046 90.8306 81.4811 90.2074 81.4811C89.6544 81.4811 89.3077 81.2046 89.2376 80.7196C89.1688 80.1653 89.3077 78.9877 89.6537 77.0487L95.7472 44.7086H85.8439L81.0649 70.262C80.1652 75.1098 79.6108 78.2957 79.4726 79.8186C79.4038 81.3428 79.6108 82.7969 80.2353 84.1815C80.7884 85.5674 81.8965 86.6748 83.4888 87.5064C85.0825 88.4061 86.952 88.8222 89.2369 88.8222C91.3142 88.8222 93.1149 88.4756 94.7774 87.7141C96.4398 87.0215 97.8244 85.9134 99.002 84.5275C100.18 83.1429 101.011 81.7576 101.426 80.4411C101.911 79.1266 102.396 76.841 103.018 73.5161L108.421 44.7092ZM68.186 72.4802C68.6008 67.5629 69.224 61.607 70.125 54.4048C67.5628 62.6456 65.8309 68.6009 64.9305 72.4802H68.186ZM78.2269 44.7092L75.1798 87.9219H66.1081L67.0779 80.0971H63.6154L61.5375 87.9219H51.7043L65.5544 44.7092H78.2269ZM57.729 44.7092H49.4187L45.8173 64.1692L43.8783 44.7092H35.6375L27.5349 87.9219H35.8452L39.5154 68.2555L40.9695 87.9219H49.6258L57.729 44.7092ZM31.2058 45.0559L23.0337 64.5846L25.0422 87.9219H15.9698L14.308 72.4802L11.3999 87.9219H1.91135L11.8146 24.9033H21.3018L16.454 59.3909L22.4794 45.0559H31.2058Z" fill="#00ACEC"/>
</svg>
