<svg width="140" height="140" viewBox="0 0 140 140" fill="none" xmlns="http://www.w3.org/2000/svg">
<path fill-rule="evenodd" clip-rule="evenodd" d="M12.0081 64.1584C14.8218 61.6461 16.7312 61.3439 20.7005 61.3439V70.0872C19.9974 70.0371 19.2937 69.9862 18.5906 69.9862C12.5107 69.9862 12.4104 73.9555 12.3596 75.6638V87.9238H2.0584V61.7463H12.0073V64.1584H12.0081ZM22.4938 69.7357C22.8954 67.5248 23.4481 64.7612 27.1668 62.8016C30.0815 61.2945 33.7995 61.0432 36.5129 61.0432C48.874 61.0432 48.874 67.4246 48.874 70.5397V84.7085C48.874 86.4175 49.025 86.87 49.7782 87.9246H39.578V85.9149C38.2713 86.8191 35.86 88.5274 30.9857 88.5274C24.4533 88.5274 21.5895 84.5581 21.5895 80.1364C21.5895 78.5784 21.941 76.4184 23.8004 74.5591C26.1616 72.147 28.9753 71.7454 33.5482 71.1425C36.412 70.7401 37.5174 70.4896 39.0754 70.0371C39.0252 68.2787 38.5226 67.0723 35.5578 67.0723C33.1966 67.0723 32.5429 67.6759 32.1914 69.4844L22.4938 69.7357ZM35.9595 76.8208C35.1054 77.0212 34.2011 77.2232 33.2969 77.5239C31.2864 78.3279 31.1862 79.5343 31.1862 79.8357C31.1862 80.5395 31.7898 81.8461 33.7486 81.8461C35.2063 81.8461 37.6177 80.8917 38.5226 78.8813C39.0245 77.7766 39.0245 76.7206 39.0245 75.8163C38.02 76.1671 37.0148 76.5194 35.9595 76.8208ZM56.2503 78.4281C57.2047 79.3817 58.1598 80.2366 60.1695 81.0907C62.0288 81.8447 63.435 81.9449 64.2898 81.9449C65.5456 81.9449 67.0033 81.4931 67.0033 80.3376C67.0033 79.0309 65.4454 78.7796 64.3901 78.6286C63.4858 78.4775 61.325 78.126 58.9638 77.4222C56.5518 76.7191 51.7785 75.3123 51.7785 69.7851C51.7785 67.4732 52.8338 65.3633 54.391 63.8555C57.456 60.9415 61.8778 60.8406 63.586 60.8406C65.5456 60.8406 67.5052 61.0919 69.4648 61.5444C73.0317 62.3985 74.5395 63.504 75.9964 64.6094L70.4191 69.6841C68.6607 68.5787 66.5 67.2219 63.7364 67.2219C63.3347 67.2219 61.5255 67.2219 61.5255 68.5787C61.5255 69.533 62.2293 69.6841 65.696 70.539C70.3182 71.5936 71.4243 71.8449 72.6801 72.4978C75.2934 73.9054 76.7503 76.3167 76.7503 79.2815C76.7503 84.4071 72.4804 88.9283 64.3901 88.9283C56.9534 88.9283 52.6827 85.5118 50.4718 83.7033L56.2503 78.4281ZM105.719 80.9404C105.065 82.3473 104.513 83.4527 103.207 84.7586C101.75 86.2664 98.3819 88.929 92.3536 88.929C83.7614 88.929 78.4855 83.1012 78.4855 74.7094C78.4855 70.3886 80.0434 66.8711 82.2035 64.6602C85.8205 60.8922 90.9954 60.691 92.9564 60.691C94.7155 60.691 99.6893 60.7411 103.659 64.7612C104.664 65.7664 105.116 66.4695 105.719 67.474L97.8307 71.9458C97.177 69.6347 95.9212 67.9766 93.4583 67.9766C90.2938 67.9766 88.7359 71.091 88.7359 75.0108C88.7359 77.0714 89.1375 80.9898 93.207 80.9898C96.3715 80.9898 97.3775 77.9756 97.83 76.6181L105.719 80.9404ZM107.868 52.4002H118.169V64.5099C119.123 63.3536 121.134 60.7912 126.51 60.7912C129.474 60.7912 132.137 61.7957 133.744 63.4037C135.907 65.6647 136.005 68.5787 136.106 70.8912V87.9238H125.806V73.052C125.756 71.8957 125.705 69.3333 122.088 69.3333C118.269 69.3333 118.22 72.0461 118.22 73.2524V87.9238H107.868V52.4002ZM133.447 52.4278H134.885C135.739 52.4278 136.162 52.7888 136.162 53.5114C136.162 54.2334 135.703 54.5333 135.219 54.6125L136.302 56.3041H135.659L134.593 54.622H134.012V56.3041H133.447V52.4278ZM134.012 54.1099H134.682C135.22 54.1099 135.599 54.0307 135.599 53.5107C135.599 53.1047 135.237 52.9377 134.735 52.9377H134.013V54.1099H134.012ZM134.646 51.0703C135.079 51.0696 135.508 51.1544 135.908 51.3198C136.308 51.4851 136.672 51.7279 136.978 52.034C137.284 52.3401 137.527 52.7036 137.692 53.1037C137.858 53.5038 137.942 53.9326 137.942 54.3656C137.942 54.7985 137.858 55.2273 137.692 55.6274C137.527 56.0275 137.284 56.391 136.978 56.6972C136.672 57.0033 136.308 57.246 135.908 57.4113C135.508 57.5767 135.079 57.6615 134.646 57.6608C134.214 57.6615 133.785 57.5767 133.385 57.4113C132.985 57.246 132.621 57.0033 132.315 56.6972C132.009 56.391 131.766 56.0275 131.601 55.6274C131.435 55.2273 131.351 54.7985 131.351 54.3656C131.351 53.9326 131.435 53.5038 131.601 53.1037C131.766 52.7036 132.009 52.3401 132.315 52.034C132.621 51.7279 132.985 51.4851 133.385 51.3198C133.785 51.1544 134.214 51.0696 134.646 51.0703ZM134.646 57.1502C136.135 57.1502 137.377 55.8814 137.377 54.3663C137.377 52.8512 136.135 51.5824 134.646 51.5824C133.157 51.5824 131.914 52.8512 131.914 54.3663C131.914 55.8814 133.157 57.1502 134.646 57.1502Z" fill="#CC2229"/>
</svg>
