<svg width="172" height="41" viewBox="0 0 172 41" fill="none" xmlns="http://www.w3.org/2000/svg">
<path fill-rule="evenodd" clip-rule="evenodd" d="M130.834 14.1595C130.834 11.3302 132.232 10.6041 134.421 11.1254V19.3429H130.834V14.1595ZM120.94 10.3668V39.95C120.94 40.2413 121.026 40.3292 121.311 40.3292H130.834V25.4112H134.421V40.3292H144.315V4.67773H125.268C123.632 4.67773 122.697 5.38859 122.024 6.41857C121.388 7.39128 120.94 8.80819 120.94 10.3668V10.3668ZM57.7387 19.2165V10.8725C59.6782 10.8725 60.3806 10.5562 60.8597 12.4864C61.4902 15.0266 61.5196 20.1168 57.7387 19.2165ZM47.8442 39.95C47.8442 40.2413 47.9303 40.3292 48.2153 40.3292H57.7387V25.4112C59.1305 25.4112 61.3254 24.5616 61.3254 28.1926V40.0764H71.3436V25.6641C71.3436 23.8843 70.4739 22.2712 68.7463 22.1242C69.2219 21.7864 71.0962 21.0349 71.0962 19.0901V10.8725C71.0962 9.26967 70.234 7.44949 69.4596 6.60353C68.4974 5.55266 67.3436 4.67774 65.4069 4.67774H47.8442V39.95V39.95ZM94.1008 40.3292H103.995V25.4112H107.582V40.3292H117.105C117.39 40.3292 117.476 40.2413 117.476 39.95V4.67773H107.582V19.3429H103.995V4.67773H94.1008V40.3292ZM166.083 11.8839C164.864 11.8839 163.486 10.687 163.486 9.60825C163.486 8.4951 163.369 7.97704 164.315 7.04224C165.886 5.48858 168.928 6.50706 168.928 9.10256C168.928 10.6945 167.665 11.8839 166.083 11.8839ZM147.778 32.8702C147.778 35.5925 148.54 38.3098 150.958 39.4814C153.984 40.9481 164.95 41 168.024 39.5317C170.167 38.5081 171.154 36.1561 171.154 32.9966V4.67774H161.259V31.7324C161.259 34.041 160.512 34.5138 159.157 34.5138C158.058 34.5138 157.673 32.9054 157.673 31.7324V4.67774H147.778V32.8702H147.778ZM74.683 40.3292L91.0088 40.2028V34.1345H84.5774V25.4112H91.0088V19.3429H84.5774V10.7461H91.0088V4.67774H74.683V40.3292Z" fill="#5A5E5E"/>
<path fill-rule="evenodd" clip-rule="evenodd" d="M166.578 9.22862C166.825 9.70621 167.201 10.0996 167.32 10.6193C166.54 10.5529 166.737 9.8935 166.263 9.42414C165.965 9.12914 166.211 9.22862 165.588 9.22862V10.6193H165.094V7.45868C165.993 7.45868 167.443 7.24273 167.443 8.34363C167.443 8.97056 167.153 9.17967 166.578 9.22862ZM163.857 8.84936C163.857 10.5184 164.79 11.6191 166.191 11.5876C169.294 11.5178 169.303 6.57373 166.083 6.57373C164.967 6.57373 163.857 7.67198 163.857 8.84936Z" fill="#5A5E5E"/>
<path fill-rule="evenodd" clip-rule="evenodd" d="M165.588 8.97571H166.207C167.282 8.97571 167.207 7.83789 166.578 7.83789H165.588V8.97571Z" fill="#5A5E5E"/>
<path fill-rule="evenodd" clip-rule="evenodd" d="M9.62744 34.5136C9.74913 34.9795 9.68157 34.7718 9.99066 35.0273L11.6802 36.3345C12.111 36.6255 12.4288 36.8814 12.8838 37.127C17.7152 39.7353 23.0314 40.4968 28.1398 37.8864C29.6126 37.1339 31.9327 35.6062 32.9852 34.2425C33.1535 34.0246 33.2719 33.9261 33.4688 33.7254C35.6644 31.487 37.0845 27.2309 37.0845 23.7676C36.1103 24.4345 34.4538 25.904 33.0529 26.8527L28.6983 29.6076C27.7127 30.2179 26.5263 30.743 25.4551 31.2231C21.4921 32.9993 18.5804 33.6982 14.2415 34.2995C12.802 34.499 11.3632 34.5136 9.62744 34.5136V34.5136Z" fill="#E9128B"/>
<path fill-rule="evenodd" clip-rule="evenodd" d="M0.845703 19.0907C0.845703 22.6706 1.34228 25.5846 3.14411 28.3723C3.53158 28.9718 4.75745 30.6776 5.26641 31.1334C5.87156 31.6754 7.50812 33.099 8.14283 33.2502C7.63125 31.0055 7.52446 26.5651 7.52446 24.0212C7.52446 18.7409 8.56932 14.6511 10.0755 10.3201C10.3503 9.52984 10.6737 8.72527 11.0282 8.00696C11.5194 7.01152 11.407 7.02177 12.0951 5.81056C12.4855 5.12347 12.8502 4.36932 13.2137 3.66699C11.5626 4.06019 9.92467 4.94131 8.50548 5.80759C8.11748 6.04443 7.86537 6.24476 7.47348 6.52264L5.57959 8.12661C5.22146 8.43592 5.12743 8.70832 4.77316 9.07224C2.94031 10.955 0.845703 15.3558 0.845703 19.0907V19.0907Z" fill="#A4CC3A"/>
<path fill-rule="evenodd" clip-rule="evenodd" d="M15.564 1.89637V2.14919C16.3102 2.21266 18.4263 3.25533 19.2223 3.59312C20.3227 4.06007 21.6417 4.77068 22.6968 5.3513C25.7954 7.05645 29.0775 9.45159 31.5497 11.9786C33.6643 14.1402 33.3438 13.7761 35.2579 16.1529C35.6737 16.6693 35.9742 17.1472 36.3611 17.68L38.4449 20.8599C38.6634 20.3944 38.9396 17.6278 38.9396 16.8143C38.9396 12.6925 37.3456 8.00777 34.5809 5.21387C34.242 4.87131 33.9983 4.60228 33.6548 4.26424L32.5817 3.33833C30.4017 1.65755 26.8788 0 23.9742 0C21.3994 0 19.3252 0.0681265 17.0048 1.21995C16.5202 1.46045 16.0749 1.77467 15.564 1.89637L15.564 1.89637Z" fill="#BCBEBE"/>
</svg>
