<svg width="155" height="68" viewBox="0 0 155 68" fill="none" xmlns="http://www.w3.org/2000/svg">
<path d="M85.7519 67.1392C82.7968 67.036 79.1564 66.6849 74.5711 66.061C70.5342 65.5118 67.749 65.0563 53.8127 62.6662C44.4242 61.0561 39.4841 60.4201 35.2484 60.2761L33.6029 60.2202L30.9449 60.3192C22.2038 60.6445 14.2033 61.7292 3.44838 64.0472L0.634054 64.6537L0.515513 64.6072L0.396973 64.5607L0.418614 58.2363L0.440261 51.912L1.95916 51.5025C9.61894 49.4371 16.1155 48.3271 23.6035 47.8042L24.9958 47.707L32.0418 47.6644L39.0878 47.6217L40.8599 47.721C47.0522 48.068 51.8731 48.7529 63.3903 50.922C74.2751 52.9721 78.6345 53.6242 84.5283 54.0839L86.4269 54.2319L90.4773 54.234L94.5277 54.2362L96.3842 54.1288C99.0702 53.9735 102.291 53.7143 105.666 53.3819L108.62 53.0911L108.701 53.1714L108.782 53.2517L108.616 53.4102C108.498 53.524 91.6625 64.6535 88.1568 66.9358C87.9943 67.0416 87.7855 67.1445 87.6927 67.1646C87.5998 67.1846 86.7265 67.1732 85.7519 67.1392V67.1392ZM110.94 62.9509V62.8133L115.082 55.8821L119.223 48.951L119.406 48.9008L119.59 48.8505L136.819 48.8493L154.048 48.8482L154.181 48.9838L154.313 49.1194V56.0004V62.8814L154.212 62.985L154.111 63.0885H132.526H110.94V62.9509V62.9509ZM60.0993 41.7608C59.5424 41.7211 58.5485 41.6087 57.8907 41.511L56.6946 41.3334L55.6967 41.0831C55.1478 40.9455 54.338 40.7107 53.8971 40.5614L53.0955 40.29L51.7454 39.6111L50.3952 38.9322L49.5071 38.2469L48.6191 37.5616L47.8617 36.7507L47.1043 35.9397L46.5876 35.1659L46.0709 34.3921L45.6932 33.6153C45.0206 32.2322 44.591 30.8445 44.317 29.1706L44.1829 28.3507L44.1346 26.8835L44.0863 25.4163L44.185 24.3807C44.2394 23.811 44.3604 22.9566 44.4539 22.4819L44.6241 21.6189L44.9501 20.6173L45.2761 19.6157L45.655 18.844C45.8634 18.4195 46.2723 17.7051 46.5637 17.2564L47.0934 16.4406L48.1114 15.4018L49.1295 14.363L49.8889 13.8401C50.9153 13.1334 51.8898 12.6093 53.0612 12.1341L54.0395 11.7372L55.3395 11.4L56.6396 11.0627L57.9475 10.8608L59.2555 10.6589L62.5042 10.6585L65.753 10.6582L66.639 10.7723C69.4886 11.1394 71.6127 11.7397 73.5709 12.7313L74.4693 13.1863L75.1741 13.668C76.4754 14.5571 77.486 15.5583 78.4086 16.8722L78.8934 17.5626L79.3537 18.5004L79.8141 19.4382L80.0996 20.3128L80.3851 21.1874L80.5972 22.2662L80.8093 23.345L80.9078 24.5533L81.0064 25.7616L80.952 27.0095L80.8976 28.2575L80.7669 29.1672C80.5046 30.9923 80.0373 32.5205 79.2814 34.0257L78.8481 34.8884L78.3416 35.5896C78.0631 35.9753 77.5469 36.5957 77.1946 36.9684L76.5541 37.646L75.7946 38.2263C74.5475 39.1794 73.7141 39.6472 72.1488 40.2732L71.1851 40.6586L69.9036 40.991L68.622 41.3235L67.3563 41.5045L66.0905 41.6855L64.8248 41.7702L63.559 41.8548L62.3355 41.8439C61.6625 41.8379 60.6562 41.8005 60.0993 41.7608V41.7608ZM63.8966 35.9871L64.656 35.9007L65.2467 35.7211L65.8374 35.5415L66.3411 35.2688L66.8449 34.9962L67.2756 34.549L67.7063 34.1019L67.9661 33.5997C68.1089 33.3235 68.3054 32.8313 68.4028 32.506L68.5797 31.9146L68.709 30.9094L68.8382 29.9042L68.8888 27.2719L68.9393 24.6396L68.8423 22.9667L68.7452 21.2939L68.5774 20.507L68.4095 19.7202L68.1168 19.0894L67.824 18.4587L67.337 17.9614L66.85 17.4641L66.3015 17.1902L65.753 16.9163L65.0779 16.736L64.4029 16.5557L63.0949 16.511L61.787 16.4663L60.9669 16.6042L60.1469 16.7421L59.5768 16.9615L59.0067 17.181L58.6024 17.4464L58.1981 17.7117L57.8529 18.1118L57.5078 18.5119L57.2733 18.9866C56.9575 19.6256 56.7267 20.4236 56.5868 21.36L56.4708 22.1367V26.1068V30.0768L56.5797 30.8535C56.6396 31.2808 56.7653 31.9211 56.8591 32.2764L57.0298 32.9226L57.2841 33.4676L57.5384 34.0127L58.019 34.515L58.4995 35.0172L59.0884 35.3175L59.6774 35.6178L60.2259 35.7661C61.2854 36.0525 62.6178 36.1327 63.8966 35.9871ZM100.899 41.7568L100.097 41.6795L99.0551 41.4642L98.0132 41.2489L97.0721 40.9397L96.131 40.6305L95.1798 40.1703C93.9996 39.5992 93.3901 39.2275 92.4164 38.4853L91.6553 37.9051L90.771 36.9672L89.8866 36.0293L89.3699 35.2539L88.8531 34.4784L88.4333 33.6153C87.7146 32.1377 87.2894 30.7768 87.0175 29.0843L86.8859 28.2644L86.8349 26.9267L86.784 25.5889L86.8846 24.5101L86.9851 23.4313L87.1536 22.5682L87.3221 21.7052L87.6479 20.7041L87.9737 19.703L88.4134 18.8054L88.8531 17.9078L89.3699 17.1328L89.8866 16.3578L90.7305 15.4597L91.5743 14.5617L92.2494 14.0249C93.1812 13.2839 93.8504 12.8676 95.0786 12.2648L96.131 11.7483L97.0592 11.437L97.9874 11.1258L99 10.9165L100.013 10.7073L101.025 10.6058L102.038 10.5044L104.105 10.5574L106.173 10.6104L107.523 10.744C110.642 11.0528 113.149 11.5919 115.203 12.3957L116.003 12.7091V12.8767V13.0443L114.897 15.6918C114.289 17.1479 113.759 18.3751 113.718 18.4189L113.645 18.4985L112.483 18.1005C110.64 17.4695 109.402 17.1942 107.525 16.9975L106.515 16.8916L105.542 16.9425L104.569 16.9934L103.867 17.1702L103.166 17.347L102.56 17.6359L101.953 17.9249L101.489 18.2811L101.025 18.6372L100.576 19.1787L100.127 19.7202L99.7144 20.5832L99.3022 21.4463L99.1322 22.0936C99.0387 22.4496 98.8972 23.1098 98.8177 23.5608L98.6731 24.3807V26.1931V28.0055L98.8127 28.8264C98.8895 29.2779 99.0499 29.9917 99.1692 30.4127L99.386 31.178L99.6797 31.7925L99.9734 32.407L100.392 32.9773L100.81 33.5475L101.195 33.8696C101.406 34.0468 101.796 34.3254 102.061 34.4887L102.543 34.7857L103.304 35.0346L104.064 35.2834L104.724 35.3771L105.384 35.4709L106.032 35.4694C107.922 35.465 110.39 35.0037 112.494 34.2619L113.494 33.909L113.616 33.9348L113.739 33.9605L114.871 36.6651C115.494 38.1526 116.004 39.4235 116.004 39.4893V39.6091L115.765 39.7354C114.929 40.1777 112.307 40.9211 110.435 41.2466C107.561 41.7463 103.208 41.9792 100.899 41.7568L100.899 41.7568ZM136.635 41.8045C136.357 41.7863 135.522 41.71 134.78 41.6349L133.432 41.4985L132.249 41.2865C130.716 41.0117 129.537 40.7153 128.281 40.2887L127.268 39.9448L126.224 39.4347L125.18 38.9245L124.489 38.4545L123.798 37.9845L123.196 37.4138L122.593 36.8431L122.197 36.308L121.8 35.7729L121.425 34.9694L121.051 34.1659L120.881 33.3296L120.712 32.4933L120.757 31.3282L120.803 30.1631L120.934 29.6232C121.006 29.3263 121.181 28.7745 121.323 28.397L121.582 27.7106L122.011 27.0381L122.44 26.3657L123.082 25.7114L123.724 25.0572L124.358 24.6225C125.98 23.5096 127.938 22.7393 130.552 22.1853L131.741 21.9333L133.133 21.7572C133.899 21.6602 135.038 21.5392 135.665 21.4882L136.804 21.3955L139.538 21.3425L142.271 21.2896L142.22 20.2028L142.169 19.116L142.044 18.453L141.919 17.7899L141.703 17.3226L141.487 16.8554L141.186 16.5388L140.886 16.2223L140.487 16.0154C140.267 15.9016 139.872 15.7443 139.608 15.6659L139.128 15.5232L138.092 15.4568L137.057 15.3904L135.158 15.4577L133.26 15.5249L132.295 15.6647L131.33 15.8044L130.364 16.0593L129.398 16.3141L128.249 16.7956C127.617 17.0604 126.94 17.3402 126.746 17.4174L126.392 17.5577L126.332 17.4963C126.299 17.4626 125.902 16.3977 125.45 15.13L124.628 12.825L124.668 12.719L124.708 12.613L125.23 12.399C127.37 11.523 130.892 10.8704 134.892 10.6085L136.441 10.5072L139.154 10.5549L141.867 10.6027L142.916 10.7392C143.493 10.8142 144.443 10.9761 145.026 11.0988L146.086 11.3219L147.073 11.6532L148.061 11.9845L148.845 12.3728L149.63 12.7611L150.303 13.2199L150.976 13.6788L151.625 14.3341L152.275 14.9894L152.754 15.7419L153.234 16.4944L153.531 17.2442L153.828 17.9941L154.044 18.9866L154.259 19.9791L154.291 29.4459L154.323 38.9128L154.166 39.0739L154.008 39.2351L152.536 39.6788C149.136 40.704 146.28 41.2919 142.969 41.6486L141.782 41.7763L139.462 41.8069C138.186 41.8237 136.913 41.8226 136.635 41.8045ZM140.795 35.8947L142.033 35.8007L142.182 35.7187L142.332 35.6366L142.311 30.958L142.289 26.2794L140.643 26.3012L138.998 26.323L137.835 26.4557L136.672 26.5883L135.863 26.7983L135.053 27.0084L134.36 27.3514L133.667 27.6945L133.246 28.0819L132.825 28.4693L132.564 28.971L132.303 29.4727L132.204 30.0336L132.104 30.5946L132.158 31.1988C132.229 31.9814 132.41 32.6305 132.732 33.2512L132.991 33.7502L133.51 34.2468L134.029 34.7434L134.668 35.0663L135.307 35.3892L136.118 35.5997L136.929 35.8101L137.668 35.8878C138.731 35.9995 139.395 36.001 140.795 35.8947ZM0.499866 41.064L0.39807 40.9599V20.6933V0.426706L0.591089 0.351647L0.784114 0.276588L13.776 0.252552L26.7679 0.228516L27.8935 0.372848C30.0458 0.648801 31.8149 1.1226 33.2858 1.81696L33.9812 2.14526L34.6992 2.62393L35.4172 3.1026L36.127 3.79956L36.8368 4.49651L37.2645 5.12928L37.6922 5.76206L38.0344 6.48399L38.3766 7.20593L38.5805 7.89637C38.6926 8.27612 38.8514 8.93635 38.9334 9.36356L39.0825 10.1403V11.6938V13.2473L38.9328 14.0132C38.8505 14.4344 38.6861 15.0946 38.5675 15.4804L38.3518 16.1817L38.0209 16.8621C37.8389 17.2364 37.4983 17.8261 37.2641 18.1726L36.8384 18.8025L36.1067 19.5228L35.375 20.243L34.5773 20.7878C33.6893 21.3944 32.6905 21.926 31.6367 22.3529L30.9363 22.6367L30.9731 22.7349C30.9934 22.7888 33.2167 26.8873 35.9138 31.8424L40.8177 40.8519V41.0099V41.168L33.6662 41.1459L26.5147 41.1239L24.5739 37.1953C21.9489 31.8817 18.5846 25.4218 18.3724 25.2871L18.3039 25.2437L15.743 25.2869L13.1822 25.33L13.14 33.2269L13.0978 41.1239L6.84972 41.146L0.601663 41.1681L0.499866 41.064ZM15.123 18.8981C18.1124 18.6759 20.2231 18.2179 21.8922 17.4292L22.5874 17.1007L23.2253 16.6496L23.8632 16.1986L24.4717 15.5358L25.0802 14.873L25.473 14.1033L25.8658 13.3336L26.0848 12.6171L26.3038 11.9007L26.3025 11.452L26.3013 11.0034L26.1738 10.4504L26.0464 9.89746L25.7743 9.37402L25.5021 8.85057L25.0643 8.40225L24.6265 7.95393L24.0939 7.65013L23.5613 7.34633L22.918 7.13225L22.2746 6.91816L21.3991 6.76135L20.5235 6.60454L16.8528 6.60317L13.1822 6.6018L13.1603 12.6863C13.1483 16.0328 13.1566 18.8194 13.1788 18.8787L13.219 18.9866L13.5803 18.9862C13.779 18.9861 14.4732 18.9464 15.123 18.8981V18.8981Z" fill="#ACC9E1"/>
<path d="M85.4144 67.055C81.2017 66.8813 75.481 66.2046 67.947 64.9887C66.7403 64.794 62.1456 64.0169 57.7366 63.262C44.6306 61.0178 40.8341 60.4854 36.1767 60.2384L34.3624 60.1421L31.4292 60.2345C22.3066 60.5216 13.5998 61.7156 2.17015 64.247C1.40437 64.4166 0.711373 64.5555 0.630154 64.5555L0.482483 64.5556V58.3015V52.0474L0.643148 51.9595C0.862216 51.8396 5.44297 50.6737 7.57069 50.1963C12.9491 48.9896 17.6839 48.2959 22.9707 47.9401L24.9115 47.8095L28.9197 47.7291L32.9279 47.6487L37.2314 47.7275L41.535 47.8064L43.1383 47.9395C49.0432 48.4299 52.8599 49.0189 65.4999 51.3903C76.1023 53.3794 81.2193 54.0539 87.5869 54.3019L90.2658 54.4062L93.4938 54.3013C97.7737 54.1623 101.433 53.9002 106.908 53.3403L108.535 53.1738L108.607 53.2465L108.679 53.3192L108.228 53.6154C107.979 53.7784 103.371 56.8178 97.9875 60.3698C92.6038 63.9218 88.0851 66.8992 87.9459 66.9861L87.6927 67.1441L87.313 67.1308C87.1041 67.1235 86.2498 67.0894 85.4144 67.055V67.055ZM111.025 62.9078C111.025 62.8038 118.85 49.667 119.182 49.2149L119.387 48.9344H136.713H154.04L154.135 49.0517L154.23 49.1691L154.208 56.064L154.187 62.959L132.606 62.9807L111.025 63.0025V62.9078ZM60.6056 41.7146C60.42 41.6995 59.7935 41.6452 59.2133 41.594L58.1585 41.5009L57.0194 41.2879C53.0586 40.5475 50.0041 38.9948 47.8052 36.6041L47.179 35.9234L46.6672 35.1577C45.7556 33.7938 45.0633 32.1996 44.667 30.5514L44.4492 29.6452L44.3211 28.6267L44.1931 27.6082V26.2715V24.9347L44.2821 24.0967L44.3712 23.2586L44.5842 22.2762L44.7973 21.2937L45.0917 20.4285L45.3862 19.5632L45.7523 18.8177C45.9537 18.4076 46.3462 17.7244 46.6247 17.2995L47.1309 16.5268L47.781 15.8124C48.5338 14.9852 49.3554 14.2795 50.3109 13.6392L50.9859 13.1868L51.929 12.718L52.8721 12.2493L54.0208 11.8627L55.1695 11.476L56.4109 11.221L57.6522 10.9659L58.918 10.8294L60.1837 10.6929L62.5465 10.6926L64.9092 10.6922L65.9218 10.7859C67.3161 10.9149 68.8389 11.1803 70.141 11.5212L71.238 11.8083L72.1306 12.1616C73.267 12.6115 74.2506 13.1252 75.2074 13.7688L75.9634 14.2774L76.9815 15.3158L77.9995 16.3542L78.5029 17.1309C78.7798 17.5581 79.1686 18.248 79.367 18.664L79.7277 19.4204L80.0556 20.4419L80.3836 21.4635L80.5566 22.4042C81.009 24.8651 81.009 27.5208 80.5566 29.9818L80.3836 30.9225L80.0566 31.9411L79.7296 32.9596L79.2542 33.9101L78.7789 34.8605L78.1629 35.7051L77.5469 36.5496L76.9045 37.1734C75.7915 38.2543 74.6347 39.0531 73.1602 39.7589L72.3349 40.154L71.238 40.5235L70.141 40.893L69.1284 41.1108C67.83 41.3902 66.4895 41.5737 64.9514 41.6827L63.7278 41.7694L62.3355 41.7557C61.5697 41.7482 60.7913 41.7297 60.6056 41.7146ZM63.77 36.0723L64.5717 35.9864L65.2016 35.8101L65.8315 35.6337L66.3397 35.3581L66.8478 35.0824L67.328 34.5924L67.8082 34.1024L68.107 33.4669L68.4059 32.8315L68.5722 32.1014C68.6637 31.6998 68.7845 30.9829 68.8408 30.5082L68.9431 29.6452L68.9462 26.1067L68.9492 22.5682L68.8469 21.7051C68.7906 21.2304 68.6849 20.5896 68.612 20.2811L68.4795 19.7201L68.1536 19.0208L67.8276 18.3215L67.3197 17.8405L66.8117 17.3595L66.2824 17.096L65.753 16.8326L65.2563 16.7029C64.983 16.6316 64.4324 16.5285 64.0327 16.4738L63.3059 16.3744L62.1667 16.425L61.0276 16.4756L60.3187 16.6541L59.6098 16.8325L59.0743 17.0938L58.5389 17.3552L58.0433 17.8245L57.5478 18.2937L57.2363 18.9L56.9248 19.5063L56.724 20.3158L56.5232 21.1254L56.4241 22.3806L56.3251 23.6358L56.3694 26.9426L56.4137 30.2493L56.5069 30.9097C56.5582 31.273 56.6744 31.867 56.7651 32.2298L56.93 32.8896L57.1898 33.4462L57.4496 34.0029L57.9193 34.5219L58.3891 35.0408L59.0755 35.3848L59.7618 35.7288L60.2727 35.8594C61.3476 36.1341 62.525 36.2058 63.77 36.0723ZM100.772 41.6762C100.354 41.6296 99.557 41.4975 99.0001 41.3827L97.9875 41.174L97.0593 40.8627L96.1311 40.5514L95.0763 40.0341L94.0215 39.5168L93.0511 38.8576L92.0807 38.1984L91.0192 37.1151L89.9578 36.0318L89.3501 35.0954L88.7423 34.1591L88.3728 33.3693L88.0033 32.5796L87.704 31.6619L87.4048 30.7442L87.2324 29.8495C87.1375 29.3574 87.0226 28.5858 86.977 28.1348L86.894 27.3149L86.8926 26.2112L86.8911 25.1074L86.9786 24.2693C87.0266 23.8083 87.1439 23.0281 87.2392 22.5354L87.4124 21.6397L87.7073 20.723L88.0021 19.8064L88.4514 18.8834L88.9006 17.9604L89.4302 17.1697L89.9597 16.379L90.7997 15.4792L91.6396 14.5793L92.4087 13.9948C93.6304 13.0662 94.3879 12.6176 95.7092 12.0403L96.6374 11.6348L97.6345 11.3409L98.6316 11.0471L99.6597 10.8526L100.688 10.6582L103.304 10.6598L105.92 10.6613L107.101 10.773C110.439 11.0884 113.138 11.6579 115.277 12.4983L115.875 12.7332L115.904 12.8871L115.933 13.0411L114.815 15.7117L113.696 18.3824H113.613C113.567 18.3824 113.029 18.2069 112.417 17.9924L111.304 17.6024L110.173 17.3495L109.042 17.0966L107.818 16.9523L106.595 16.8081L105.582 16.859L104.569 16.9099L103.868 17.0852L103.166 17.2606L102.56 17.5495L101.954 17.8384L101.421 18.251L100.889 18.6636L100.471 19.1918L100.052 19.7201L99.721 20.3709L99.3897 21.0217L99.1696 21.7086L98.9495 22.3955L98.7901 23.3449L98.6307 24.2943L98.5724 25.3731L98.514 26.4519L98.6152 27.636L98.7163 28.8201L98.9186 29.7358L99.1209 30.6515L99.4124 31.341C99.5727 31.7201 99.8303 32.2494 99.9849 32.5171L100.266 33.0037L100.814 33.5709L101.363 34.1381L101.88 34.4592C102.495 34.8409 103.312 35.1666 104.138 35.3591L104.738 35.4992L106.088 35.5005L107.438 35.5018L108.409 35.3519C108.943 35.2694 109.797 35.1061 110.307 34.989L111.235 34.776L112.399 34.3746L113.563 33.9732L113.673 34.0963C113.808 34.2464 115.919 39.2905 115.919 39.463V39.5857L115.687 39.6973C115.206 39.9285 113.509 40.4818 112.518 40.7307C111.184 41.0656 109.228 41.3857 107.481 41.555L106.088 41.6898L103.81 41.7255L101.532 41.7611L100.772 41.6762L100.772 41.6762ZM136.593 41.7198C136.384 41.7018 135.72 41.644 135.116 41.5914C132.734 41.3837 130.253 40.881 128.248 40.1999L127.184 39.8386L125.961 39.2117L124.737 38.5848L123.896 37.9124L123.056 37.24L122.524 36.5927L121.992 35.9455L121.619 35.2085L121.246 34.4716L121.063 33.8276L120.881 33.1837L120.837 32.0186L120.794 30.8535L120.936 30.0815C121.174 28.7898 121.523 27.8983 122.189 26.8834L122.529 26.3656L123.134 25.752L123.739 25.1383L124.383 24.6939C124.737 24.4495 125.399 24.0596 125.853 23.8275L126.678 23.4055L127.564 23.0898C129.722 22.3205 132.228 21.8475 135.622 21.5685L136.804 21.4713L139.546 21.4156L142.289 21.3599L142.316 20.8852L142.344 20.4105L142.249 19.4612C142.134 18.3161 142.036 17.8815 141.759 17.2701L141.548 16.8051L141.214 16.4632L140.88 16.1214L140.342 15.8639L139.804 15.6065L139.063 15.4744L138.323 15.3424L135.791 15.3874L133.26 15.4324L132.163 15.6085C130.457 15.8822 129.169 16.2767 127.44 17.0545C126.554 17.453 126.425 17.487 126.34 17.3456C126.311 17.2976 125.93 16.2614 125.493 15.0431L124.699 12.828L124.787 12.7202L124.874 12.6123L125.591 12.347C127.787 11.5344 131.086 10.9379 134.719 10.6966L136.263 10.5941L139.149 10.6399L142.036 10.6858L143.006 10.8245C145.068 11.1192 146.528 11.486 148.027 12.0867L148.871 12.4249L149.56 12.8361C149.938 13.0622 150.557 13.4959 150.934 13.7998L151.62 14.3524L152.11 14.9757C153.036 16.1521 153.562 17.2412 153.888 18.6551L154.055 19.3749L154.142 20.3242L154.229 21.2736L154.229 30.0921L154.229 38.9107L154.111 39.0312L153.993 39.1516L152.698 39.5537C149.522 40.5391 146.472 41.1755 143.09 41.558L141.867 41.6964L139.42 41.7245C138.074 41.7399 136.802 41.7378 136.593 41.7198ZM141.651 35.8953L142.279 35.8161L142.346 35.7081L142.413 35.6002L142.414 30.9719L142.415 26.3436L142.289 26.2363L142.163 26.129L140.116 26.2249L138.07 26.3207L137.226 26.4515C136.762 26.5235 136.078 26.6619 135.707 26.7592L135.032 26.936L134.344 27.2746L133.657 27.6132L133.186 28.0534L132.715 28.4936L132.459 29.0265L132.202 29.5595L132.114 30.1201L132.025 30.6808L132.079 31.1987C132.108 31.4835 132.185 31.9392 132.251 32.2114L132.37 32.7064L132.592 33.1561L132.815 33.6059L133.286 34.1109L133.757 34.616L134.237 34.9139C135.156 35.4852 136.36 35.8367 137.917 35.9884L138.66 36.0608L139.842 36.0177C140.491 35.994 141.306 35.9389 141.651 35.8953H141.651ZM0.53874 41.0231L0.482483 40.9655V20.704V0.442518L0.630154 0.399754C0.711373 0.376234 6.64458 0.345661 13.8151 0.331815L26.8523 0.306641L27.9845 0.45579L29.1166 0.604941L30.094 0.829008C31.3846 1.12486 32.404 1.47727 33.4342 1.98374L34.278 2.39858L35.0172 2.93751L35.7564 3.47645L36.3358 4.10033C37.0221 4.83929 37.4652 5.48761 37.9273 6.4291L38.2662 7.11954L38.4811 7.81636C38.5993 8.19961 38.7582 8.84042 38.8342 9.24039L38.9724 9.96761L39.0206 11.1327L39.0687 12.2978L38.9661 13.1997L38.8634 14.1015L38.6648 14.883L38.4663 15.6646L38.1645 16.3859L37.8626 17.1071L37.3895 17.8526L36.9164 18.5981L36.1457 19.3781L35.375 20.1582L34.5779 20.7019C33.6887 21.3083 32.8412 21.7631 31.7314 22.2293C31.322 22.4013 30.9548 22.5731 30.9153 22.6112L30.8436 22.6804L35.7885 31.7618C38.5082 36.7566 40.7334 40.8967 40.7334 40.9619V41.0806H33.6485H26.5637L24.7059 37.3048C22.7832 33.3969 20.7794 29.4888 19.3182 26.7971L18.4749 25.2436L15.8343 25.2208L13.1937 25.198L13.1259 25.3071L13.0582 25.4162L13.0569 33.2484L13.0556 41.0806H6.8253H0.594998L0.53874 41.0231ZM16.1356 18.8922C21.2903 18.4033 24.2161 16.8562 25.7016 13.8338L25.9647 13.2984L26.1836 12.5392L26.4024 11.78L26.3559 11.1759L26.3094 10.5717L26.1482 10.0929C26.0596 9.82956 25.901 9.44118 25.7959 9.22986L25.6047 8.84564L25.0851 8.32387L24.5655 7.80211L23.8525 7.44331L23.1394 7.08452L22.4644 6.90914C22.0931 6.81268 21.5235 6.69056 21.1986 6.63777L20.6079 6.54178L16.9577 6.49697L13.3075 6.45216L13.1816 6.55908L13.0556 6.66599V12.7329V18.7998L13.1111 18.9477L13.1666 19.0957L14.187 19.038C14.7482 19.0062 15.6251 18.9406 16.1356 18.8922Z" fill="#8EB6D6"/>
<path d="M84.3173 66.9631C78.5701 66.6205 73.0548 65.8454 57.9897 63.2632C46.9957 61.3787 43.0404 60.7834 38.6659 60.3546L37.0626 60.1974L33.3919 60.2032L29.7213 60.209L28.118 60.3134C21.5353 60.7422 15.7486 61.5007 8.58322 62.8739C6.46955 63.279 2.62529 64.0835 1.34914 64.3878L0.637684 64.5575L0.560047 64.5084L0.482411 64.4593L0.483699 58.3152L0.484991 52.171L0.549628 52.067L0.61427 51.963L3.14313 51.3153C11.951 49.0595 18.1984 48.1198 26.4216 47.8139L28.7757 47.7263L33.5942 47.7268L38.4127 47.7274L40.227 47.8142C46.6238 48.1206 50.9964 48.7301 63.4324 51.0486C75.6638 53.3289 79.899 53.9344 86.1316 54.2939L87.8614 54.3937L91.8274 54.3448L95.7935 54.2959L97.228 54.2034C99.4248 54.0617 102.818 53.7821 105.202 53.5463C106.386 53.4292 107.615 53.3086 107.935 53.2782L108.516 53.223L108.483 53.3206L108.451 53.4182L98.114 60.2383L87.777 67.0584L86.6379 67.046C86.0113 67.0392 84.9671 67.0019 84.3173 66.9632V66.9631ZM111.079 62.936L111.039 62.8693L115.175 55.9451L119.312 49.0209H136.729H154.146L154.124 55.99L154.102 62.9592L132.611 62.9809L111.119 63.0027L111.079 62.936ZM136.888 41.6811C133.642 41.5291 130.599 40.979 128.07 40.087L127.184 39.7745L126.22 39.3034L125.255 38.8322L124.535 38.3422L123.815 37.8521L123.19 37.2445L122.564 36.6369L122.197 36.111L121.83 35.5851L121.534 34.9455L121.238 34.3059L121.065 33.6154L120.893 32.925L120.842 32.1914L120.791 31.4578L120.89 30.681C121.14 28.711 121.76 27.3087 122.965 25.986L123.471 25.4301L124.144 24.9186L124.816 24.407L125.916 23.8558L127.015 23.3045L127.901 23.0104C129.765 22.3916 131.952 21.9622 134.525 21.7094L135.876 21.5767L137.985 21.4911C139.145 21.444 140.603 21.405 141.225 21.4044L142.355 21.4032L142.307 20.0871L142.26 18.7709L142.089 18.1071C141.878 17.2848 141.736 17.0006 141.293 16.5091L140.945 16.1225L140.478 15.8819L140.01 15.6412L139.335 15.48L138.66 15.3187L136.382 15.3243L134.104 15.3299L133.133 15.4394C132.599 15.4996 131.766 15.6262 131.281 15.7207L130.4 15.8925L129.425 16.2215C128.889 16.4025 128.013 16.7467 127.479 16.9864L126.509 17.4221L126.41 17.3198L126.31 17.2175L125.533 15.0395L124.756 12.8616L124.854 12.7419L124.951 12.6222L125.561 12.398C127.57 11.6599 130.268 11.1262 133.471 10.833L134.947 10.6978L137.226 10.6447L139.504 10.5916L140.981 10.6929L142.457 10.7942L143.627 10.9669L144.796 11.1395L145.912 11.4322L147.029 11.7248L147.908 12.0807L148.786 12.4366L149.493 12.842L150.2 13.2474L150.882 13.8084L151.565 14.3694L152.061 14.9735C153.158 16.3103 153.797 17.8534 154.055 19.7913L154.145 20.4664V29.7423V39.0183L153.87 39.1349C153.719 39.199 152.85 39.4694 151.939 39.7358C148.045 40.8742 144.506 41.4888 140.718 41.6844C138.953 41.7756 138.905 41.7756 136.888 41.6811V41.6811ZM141.246 35.9855C141.727 35.9362 142.187 35.8752 142.268 35.85L142.417 35.8041L142.395 30.9987L142.373 26.1932L140.432 26.2073L138.491 26.2215L137.352 26.3961L136.213 26.5707L135.457 26.7968L134.7 27.023L134.122 27.334L133.543 27.6451L133.128 28.0263L132.714 28.4075L132.396 29.0651L132.078 29.7227L132.078 30.806L132.078 31.8893L132.238 32.364C132.325 32.6251 132.483 33.0152 132.589 33.2309L132.781 33.6232L133.169 34.0648L133.557 34.5063L134.041 34.8356L134.525 35.1649L135.243 35.4408L135.96 35.7166L136.677 35.8497C137.662 36.0324 137.818 36.0456 139.179 36.0613L140.372 36.0751L141.246 35.9855ZM59.7617 41.6293C58.5909 41.5056 57.2592 41.3046 56.3604 41.116L55.3218 40.898L54.2695 40.5539L53.2171 40.2098L52.4364 39.847C51.3133 39.3251 50.3224 38.738 49.5028 38.1088L48.7878 37.56L47.946 36.6643L47.1042 35.7686L46.6281 35.0372C46.3663 34.635 45.9797 33.9528 45.7691 33.5213L45.3862 32.7366L45.0821 31.8433L44.7781 30.95L44.5733 29.9093L44.3685 28.8686L44.2713 27.7035L44.1741 26.5384L44.2299 25.4596C44.4029 22.1163 45.1504 19.6148 46.6665 17.3057L47.1778 16.527L48.055 15.606L48.9323 14.685L49.7059 14.1205C50.1314 13.81 50.8213 13.3622 51.239 13.1253L51.9985 12.6947L52.9395 12.309C54.6824 11.5947 56.6625 11.1145 58.9179 10.8592L59.9305 10.7446L62.7574 10.7494L65.5842 10.7542L66.974 10.9453L68.3637 11.1364L69.3367 11.3583C71.8703 11.936 74.0118 12.8911 75.7524 14.2197L76.3853 14.7027L77.1044 15.4489L77.8236 16.1951L78.3384 16.9652L78.8532 17.7353L79.2493 18.5434C79.7555 19.5762 80.0679 20.4464 80.3392 21.5793L80.5555 22.4821L80.6854 23.5006L80.8154 24.5191V26.1932V27.8673L80.6854 28.8858L80.5555 29.9043L80.3396 30.8105L80.1238 31.7167L79.8336 32.4888C79.674 32.9135 79.3508 33.6377 79.1153 34.0982L78.6873 34.9353L78.1557 35.6598L77.6241 36.3842L76.791 37.2006L75.9579 38.017L75.2419 38.5077C74.8482 38.7776 74.2038 39.1736 73.8102 39.3876L73.0943 39.7768L72.1239 40.157C70.4914 40.7968 68.9043 41.1909 66.8078 41.4772L65.753 41.6212L62.9261 41.6431C61.3714 41.6552 59.9474 41.649 59.7617 41.6293V41.6293ZM64.8669 35.9488L65.4998 35.7967L66.1147 35.5086L66.7295 35.2204L67.2654 34.694L67.8014 34.1677L68.0589 33.6735L68.3165 33.1793L68.5238 32.4474L68.7312 31.7156L68.8454 30.8531L68.9595 29.9906V26.0637V22.1368L68.8525 21.3935C68.7936 20.9847 68.6886 20.4215 68.6191 20.1421L68.4929 19.634L68.1847 18.9867L67.8765 18.3394L67.3865 17.8475L66.8964 17.3555L66.2825 17.0579L65.6686 16.7603L65.1148 16.6221L64.5611 16.4839L63.6179 16.4064L62.6748 16.3288L61.7077 16.4079L60.7407 16.4869L59.9999 16.7065L59.2592 16.926L58.8388 17.158L58.4184 17.3901L57.9406 17.8665L57.4628 18.343L57.1614 18.9551L56.86 19.5673L56.6928 20.2479C56.6009 20.6223 56.485 21.2781 56.4352 21.7053L56.3447 22.4821L56.3444 26.0887L56.3442 29.6953L56.433 30.5334C56.4819 30.9944 56.5973 31.7016 56.6895 32.1051L56.8571 32.8387L57.1673 33.4812L57.4775 34.1237L57.9463 34.6137L58.4151 35.1037L59.004 35.4049C59.7336 35.778 60.0667 35.8898 60.8878 36.0374L61.5338 36.1535L62.8839 36.1271L64.234 36.1008L64.8669 35.9488H64.8669ZM99.9282 41.5158C98.0213 41.2056 96.3824 40.6721 94.7387 39.8263L93.8526 39.3704L93.1209 38.8663C92.7184 38.5891 92.0792 38.0909 91.7004 37.7592L91.0116 37.1562L90.4069 36.437C90.0744 36.0415 89.5855 35.3868 89.3206 34.982L88.8389 34.2462L88.4625 33.4561C88.2555 33.0216 87.9489 32.2605 87.7811 31.7649L87.4761 30.8637L87.2689 29.8168L87.0616 28.7698L86.9736 27.5031L86.8857 26.2363L86.9714 25.0065L87.0571 23.7766L87.194 22.9567L87.3309 22.1368L87.6217 21.1443L87.9124 20.1518L88.4046 19.1049L88.8968 18.0581L89.3687 17.3357C89.6282 16.9384 90.1015 16.3064 90.4204 15.9314L91.0002 15.2494L91.667 14.6558C92.0337 14.3293 92.6945 13.8142 93.1354 13.5111L93.937 12.96L94.8693 12.4843L95.8016 12.0086L96.7807 11.6633L97.7599 11.318L98.7175 11.1023C99.2442 10.9837 100.036 10.8361 100.477 10.7744L101.278 10.6621L103.346 10.6745L105.413 10.6868L106.637 10.783C109.186 10.9836 111.54 11.3779 113.43 11.9205C114.512 12.2313 115.659 12.6607 115.821 12.8152L115.933 12.9233L114.82 15.5882C114.208 17.0539 113.682 18.2812 113.651 18.3155L113.594 18.378L112.626 18.0289C110.89 17.4033 109.028 17.0046 107.054 16.8362L106.078 16.753L105.23 16.8346L104.382 16.9162L103.716 17.0879L103.05 17.2596L102.333 17.6198L101.616 17.98L100.853 18.7638L100.089 19.5477L99.7029 20.3244C99.2408 21.2537 99.0125 21.9419 98.7848 23.0914L98.615 23.9492L98.5633 25.5563L98.5116 27.1634L98.617 28.1455L98.7223 29.1276L98.9158 29.9107C99.1621 30.9075 99.4844 31.7318 99.921 32.4816L100.266 33.0739L100.954 33.7415L101.642 34.4091L102.346 34.763L103.05 35.1169L103.725 35.3011L104.401 35.4853L105.549 35.5329L106.697 35.5806L107.659 35.4792L108.62 35.3778L109.871 35.1212L111.123 34.8645L112.234 34.472C112.845 34.2561 113.414 34.0722 113.498 34.0632L113.65 34.047L114.785 36.7519L115.919 39.4569L115.875 39.5296C115.812 39.6346 114.666 40.0748 113.66 40.3804C112.1 40.8544 110.267 41.2048 107.902 41.481L106.763 41.6141L103.852 41.6473L100.941 41.6804L99.9282 41.5158ZM1.91693 40.9981L0.524603 40.9514L0.503327 20.7317L0.482056 0.512119L0.602816 0.464725L0.723576 0.417329L14.041 0.402635L27.3585 0.387939L28.3711 0.542092C28.9281 0.626876 29.8482 0.810464 30.416 0.950067L31.4482 1.20389L32.2724 1.51865C33.3428 1.92745 33.8695 2.20228 34.7921 2.8334L35.5474 3.35015L36.2637 4.11298L36.98 4.87581L37.2849 5.35049C38.2449 6.84522 38.7535 8.43831 38.9654 10.6151L39.062 11.6076L39.0071 12.3412C38.9769 12.7447 38.8932 13.4438 38.8212 13.8947L38.6903 14.7146L38.4789 15.405L38.2674 16.0955L37.9371 16.7745C37.7555 17.148 37.4657 17.6723 37.2931 17.9397L36.9793 18.4257L36.3087 19.1425L35.6382 19.8592L35.0424 20.3175C34.7148 20.5696 34.106 20.9756 33.6896 21.2197L32.9325 21.6635L31.8898 22.1114L30.8471 22.5593L30.8829 22.7364C30.9025 22.8339 33.128 26.969 35.8284 31.9257L40.7382 40.9377L40.6677 41.0098L40.5973 41.0818L33.5982 41.0597L26.5991 41.0377L24.7004 37.1956C21.9111 31.5511 18.6662 25.3361 18.4271 25.1805L18.3295 25.117L16.5996 25.1263C15.6482 25.1314 14.4711 25.1599 13.9838 25.1897L13.0977 25.2438L13.0555 33.1407L13.0133 41.0377L8.1613 41.0413C5.49268 41.0432 2.68271 41.0238 1.91693 40.9981ZM14.7334 19.0314C16.138 18.9664 17.6004 18.7852 18.9251 18.5119L19.9426 18.302L20.8193 17.9899C21.8307 17.6298 22.3177 17.3905 23.1322 16.8536L23.7157 16.4689L24.218 15.9801L24.7202 15.4913L25.0918 14.96L25.4634 14.4287L25.7923 13.7086L26.1212 12.9885L26.2547 12.4582L26.3881 11.9279V11.3759V10.824L26.2589 10.3166L26.1297 9.80926L25.8708 9.31249L25.6119 8.81572L25.2506 8.43005C25.0519 8.21794 24.6854 7.90364 24.4363 7.73161L23.9832 7.41884L23.3438 7.16608L22.7044 6.91332L21.8249 6.71728L20.9454 6.52124L17.0216 6.51842L13.0977 6.51561L13.0761 12.7673L13.0544 19.019L13.1598 19.0855L13.2651 19.1521L13.4346 19.1179C13.5278 19.099 14.1122 19.0601 14.7334 19.0314Z" fill="#639AC7"/>
<path d="M85.3257 66.9696C79.5522 66.7084 74.0351 65.9581 59.0023 63.3899C44.3757 60.8911 40.8274 60.3883 36.1686 60.1546L34.4306 60.0675L31.4853 60.1525C25.095 60.3369 19.4784 60.9224 12.353 62.1472C9.08844 62.7083 3.70812 63.7804 1.38432 64.3328C1.06817 64.4079 0.754896 64.4694 0.68816 64.4694H0.566823V58.2622V52.0549L0.841069 51.9643C1.37961 51.7865 5.87152 50.6641 7.57064 50.2828C12.0154 49.2854 16.0377 48.6375 20.186 48.2508C23.0027 47.9882 24.6395 47.9034 28.8353 47.8024L32.6747 47.71L36.1344 47.7639C40.0444 47.8249 41.9775 47.9157 44.6571 48.1643C49.9228 48.6527 53.3567 49.1998 65.753 51.5252C74.3328 53.1346 79.4875 53.8771 84.5912 54.2385L86.4683 54.3714L88.8103 54.4262L91.1524 54.481L93.937 54.3798C97.9447 54.2341 102.196 53.9203 106.806 53.4298L108.282 53.2726L108.349 53.3335L108.415 53.3944L98.0961 60.2049L87.7771 67.0154L87.313 67.027C87.0577 67.0334 86.1634 67.0075 85.3257 66.9696V66.9696ZM111.114 62.8514C111.117 62.8157 112.969 59.6989 115.228 55.9252L119.336 49.064L136.551 49.0404L153.765 49.0168L153.955 49.0637L154.146 49.1107L154.124 55.9917L154.102 62.8728L132.606 62.8945L111.109 62.9163L111.114 62.8514H111.114ZM60.5212 41.6334C56.0312 41.2832 52.9373 40.3678 50.2686 38.6001C48.8704 37.6738 47.7761 36.6041 46.7923 35.2015L46.3309 34.5437L45.9359 33.7614C45.7186 33.3311 45.4122 32.6368 45.255 32.2184L44.9693 31.4577L44.7514 30.5515L44.5335 29.6453L44.4055 28.6268L44.2774 27.6083V26.2716V24.9349L44.3665 24.0968L44.4555 23.2587L44.6686 22.2763L44.8816 21.2939L45.1781 20.4207L45.4746 19.5476L45.9001 18.6988L46.3257 17.85L46.7884 17.1884C47.0429 16.8246 47.497 16.2451 47.7975 15.9007L48.3439 15.2745L49.1774 14.5887L50.011 13.903L50.836 13.4061L51.661 12.9093L52.6228 12.4921L53.5847 12.075L54.5215 11.7855C55.5803 11.4582 56.8051 11.1933 58.1372 11.0035L59.0441 10.8743L60.7883 10.789L62.5325 10.7037L64.3197 10.7877L66.107 10.8716L67.0807 11.0022C69.6176 11.3423 71.7154 11.9562 73.5813 12.9045L74.3536 13.297L75.1585 13.8456L75.9634 14.3943L76.7025 15.1023L77.4417 15.8104L78.057 16.6459L78.6724 17.4814L79.1588 18.4539L79.6452 19.4264L79.9722 20.445L80.2992 21.4636L80.4722 22.4043C80.9246 24.8652 80.9246 27.521 80.4722 29.9819L80.2992 30.9226L79.977 31.9262L79.6548 32.9297L79.2963 33.6609C78.8306 34.6106 78.3009 35.4456 77.6604 36.2393L77.1448 36.8783L76.4697 37.4775C76.0984 37.8071 75.4541 38.31 75.0379 38.595L74.2811 39.1133L73.3353 39.5819L72.3895 40.0505L71.2408 40.4371L70.0921 40.8237L68.8508 41.0776C68.168 41.2173 67.0968 41.3936 66.4703 41.4695L65.3311 41.6075L63.1371 41.6369C61.9304 41.6531 60.7533 41.6515 60.5212 41.6334V41.6334ZM63.77 36.1588C64.2109 36.1116 64.7995 36.0141 65.0779 35.9422L65.5842 35.8115L66.203 35.5126L66.8217 35.2137L67.344 34.6735L67.8664 34.1332L68.1435 33.5941L68.4206 33.055L68.6179 32.2564L68.8151 31.4577L68.9052 30.5515L68.9953 29.6453L69.0487 27.4014L69.1022 25.1574L69.0092 23.2587L68.9163 21.36L68.7508 20.5401L68.5854 19.7202L68.246 19.0185L67.9066 18.3168L67.4471 17.8468L66.9876 17.3769L66.4969 17.1114C66.227 16.9653 65.7581 16.7683 65.4549 16.6734L64.9036 16.501L64.0685 16.3935L63.2334 16.2859L62.1304 16.3399L61.0275 16.3938L60.3103 16.5718L59.593 16.7498L58.9904 17.0539L58.3878 17.3581L57.9119 17.841L57.436 18.3239L57.1019 19.0221L56.7678 19.7202L56.642 20.2283C56.5728 20.5078 56.468 21.0709 56.4091 21.4797L56.3021 22.2231V26.1068V29.9905L56.4077 30.7757C56.4658 31.2075 56.5894 31.8678 56.6824 32.2429L56.8515 32.9249L57.1084 33.4621L57.3653 33.9992L57.7958 34.481L58.2263 34.9628L58.5989 35.225L58.9715 35.4872L59.6198 35.7287L60.2681 35.9702L60.901 36.0663C62.1578 36.2573 62.6903 36.2744 63.77 36.1588ZM100.814 41.5934C99.2856 41.4193 97.894 41.0877 96.4264 40.5478L95.7091 40.2839L94.6543 39.7304L93.5995 39.1769L92.7979 38.5969L91.9962 38.0169L91.068 37.0675L90.1398 36.1182L89.6039 35.3414L89.0679 34.5647L88.5297 33.4427L87.9916 32.3208L87.7461 31.544C87.4467 30.5966 87.1729 29.2331 87.0615 28.135L86.9784 27.3151L86.9769 26.2113L86.9755 25.1075L87.0629 24.2694C87.1832 23.1158 87.4457 21.8063 87.7463 20.8603L87.9987 20.0654L88.5333 18.9435L89.068 17.8215L89.6039 17.0448L90.1399 16.268L91.0681 15.3187L91.9963 14.3693L92.7979 13.7897L93.5996 13.2101L94.57 12.6962C96.269 11.7963 97.9216 11.2354 99.8543 10.9026L100.772 10.7445L103.346 10.7456L105.919 10.7467L107.101 10.8589C110.402 11.1723 112.823 11.6743 115.105 12.5189L115.835 12.789V12.9125C115.835 13.0468 113.745 18.1221 113.642 18.2366L113.58 18.3065L112.439 17.9106L111.298 17.5147L110.17 17.2626L109.042 17.0104L107.818 16.8662L106.595 16.7219L105.582 16.7728L104.569 16.8237L103.852 17.0012L103.135 17.1787L102.362 17.5691L101.589 17.9595L101.028 18.4855L100.467 19.0115L100.146 19.4953C99.7001 20.1671 99.3331 20.9349 99.08 21.7247L98.865 22.3957L98.7056 23.345L98.5462 24.2944L98.4879 25.3732L98.4295 26.452L98.5307 27.6361L98.6319 28.8202L98.8304 29.7188L99.0289 30.6174L99.2581 31.2102C99.3842 31.5362 99.6403 32.0748 99.8273 32.4071L100.167 33.0112L100.807 33.6585L101.447 34.3058L101.933 34.5972C102.51 34.9432 103.323 35.2556 104.143 35.4461L104.738 35.5844L106.046 35.5865L107.354 35.5886L108.367 35.4386C108.924 35.3561 109.797 35.1928 110.307 35.0758L111.236 34.863L112.363 34.4723C112.982 34.2575 113.527 34.0943 113.572 34.1097L113.654 34.1378L114.744 36.7585C115.344 38.1999 115.835 39.4139 115.835 39.4563V39.5334L115.467 39.6946C113.655 40.4888 110.619 41.1637 107.481 41.4697L106.088 41.6054L103.81 41.6402L101.532 41.675L100.814 41.5934ZM136.466 41.6317C133.516 41.4439 130.484 40.8841 128.281 40.1207L127.268 39.7697L126.304 39.302L125.34 38.8343L124.532 38.2834L123.724 37.7325L123.114 37.1167L122.503 36.5009L122.176 36.0075C121.996 35.7361 121.731 35.2744 121.586 34.9814L121.324 34.4488L121.145 33.8163L120.966 33.1838L120.921 32.0815L120.875 30.9791L120.979 30.3122L121.083 29.6453L121.326 28.8686L121.569 28.0918L121.941 27.4445L122.314 26.7972L122.736 26.307C123.671 25.2193 124.614 24.5223 126.161 23.7764L127.1 23.3237L127.901 23.0562C129.959 22.3699 132.403 21.919 135.454 21.663L136.551 21.571L139.378 21.5189L142.204 21.4669L142.322 21.3713L142.439 21.2757L142.384 20.239C142.321 19.043 142.223 18.3587 142.021 17.6986L141.877 17.2305L141.619 16.8379L141.361 16.4453L140.956 16.134L140.552 15.8227L140.028 15.6367L139.504 15.4507L138.871 15.3526L138.238 15.2545L135.749 15.3017L133.26 15.349L132.374 15.4843C130.618 15.7525 129.224 16.1659 127.505 16.928C126.986 17.1583 126.526 17.3468 126.483 17.3468H126.406L125.635 15.1896C125.211 14.0031 124.864 12.9582 124.864 12.8675V12.7027L125.586 12.4354C127.736 11.6397 131.052 11.0324 134.571 10.7898L135.882 10.6993L138.285 10.6985L140.687 10.6976L141.741 10.79C143.108 10.91 144.251 11.0854 145.443 11.3583L146.404 11.5782L147.258 11.8817C148.355 12.2719 149.29 12.73 150.136 13.2931L150.811 13.742L151.613 14.5744L152.415 15.4069L152.756 16.01C152.944 16.3418 153.202 16.8563 153.331 17.1533L153.564 17.6934L153.769 18.5193L153.974 19.3452L154.059 20.2663L154.144 21.1874L154.145 30.0447L154.145 38.902L154.039 38.9912C153.881 39.1245 151.856 39.7439 150.18 40.1715C147.511 40.8524 145.696 41.1848 143.048 41.478L141.867 41.6087L139.42 41.6363C138.074 41.6515 136.745 41.6494 136.466 41.6317V41.6317ZM141.656 35.9817L142.289 35.9023L142.394 35.7564L142.5 35.6105V30.9727V26.3349L142.367 26.1993L142.234 26.0636L142.093 26.0658C142.015 26.0669 141.078 26.1051 140.01 26.1505L138.07 26.2331L137.226 26.3646C136.762 26.437 136.078 26.5755 135.707 26.6725L135.032 26.8488L134.266 27.2276L133.5 27.6065L133.031 28.0783L132.562 28.5502L132.345 29.0197L132.128 29.4891L132.036 30.0802L131.943 30.6714L132.033 31.4224L132.122 32.1735L132.241 32.5178C132.419 33.0344 132.611 33.3941 132.976 33.8952L133.306 34.3477L133.905 34.7775L134.503 35.2073L135.149 35.4618L135.794 35.7164L136.484 35.8594C136.863 35.938 137.508 36.035 137.917 36.0748L138.66 36.1472L139.842 36.1041C140.491 36.0804 141.308 36.0253 141.656 35.9817ZM26.7257 41.0251L26.5991 40.9894L24.682 37.0866C22.3065 32.2506 19.1403 26.135 18.6064 25.3516L18.4446 25.1143H15.7952H13.1459L13.0585 25.2812L12.9712 25.4482V33.2219V40.9956L6.7901 40.9734L0.609014 40.9513L0.587738 20.7604L0.566467 0.569463L0.62993 0.509038L0.693398 0.448614L13.7728 0.41901L26.8523 0.389404L27.9844 0.540387C31.4283 0.999656 33.8918 1.98151 35.7782 3.64674L36.2658 4.07717L36.7957 4.75454L37.3256 5.43191L37.7129 6.18948C38.2001 7.1426 38.4885 7.96811 38.709 9.04048L38.8818 9.88143L38.9338 11.1395L38.9858 12.3976L38.8808 13.254L38.7758 14.1104L38.5707 14.9303L38.3655 15.7502L37.8682 16.7858L37.3709 17.8215L36.8106 18.5327L36.2503 19.244L35.7086 19.714C34.5054 20.7581 33.3046 21.4892 31.7163 22.1448L30.8183 22.5155L30.8236 22.6714L30.8289 22.8272L35.6434 31.6735C38.2913 36.5389 40.5048 40.6121 40.5621 40.7249L40.6664 40.9301L40.5522 41.0041L40.438 41.0781L33.6451 41.0694C29.909 41.0646 26.7953 41.0447 26.7257 41.0251H26.7257ZM15.0386 19.071C15.6883 19.0229 16.7843 18.9047 17.4742 18.8084L18.7284 18.6333L19.6969 18.3779L20.6654 18.1225L21.467 17.785L22.2686 17.4474L22.9538 17.0303L23.6389 16.6132L24.3596 15.8762L25.0802 15.1391L25.425 14.5384C25.8187 13.8527 26.1573 13.0249 26.344 12.2916L26.4725 11.787L26.4711 11.4384C26.4702 11.2466 26.4152 10.8273 26.3488 10.5065L26.2279 9.92332L25.9178 9.31961L25.6076 8.71589L25.0764 8.20771L24.5453 7.69952L23.9374 7.38851L23.3296 7.0775L22.7704 6.90772C22.4628 6.81434 21.8504 6.67407 21.4095 6.596L20.6079 6.45405L16.9322 6.40975L13.2565 6.36546L13.1139 6.51138L12.9712 6.65731V12.7413V18.8254L13.0585 18.9923L13.1459 19.1592L13.5015 19.1589C13.6972 19.1587 14.3888 19.1192 15.0386 19.071V19.071Z" fill="#4687BD"/>
<path d="M84.9924 66.9173C77.7679 66.4394 74.0238 65.9218 58.2429 63.2196C47.0735 61.3069 43.3159 60.7365 39.1572 60.3224L37.4002 60.1475L34.9109 60.0963L32.4216 60.0451L30.101 60.1458C23.7365 60.4219 17.7687 61.1147 10.6085 62.4086C8.61013 62.7698 3.64997 63.7782 1.79039 64.2015C1.18705 64.3388 0.664929 64.4336 0.630121 64.412L0.566833 64.3729V58.2485V52.1241L0.756696 52.0429C1.03052 51.9259 3.95816 51.1672 5.91339 50.7066C12.537 49.1463 17.6005 48.3909 24.1942 47.9792L25.6709 47.887L31.7887 47.8393L37.9065 47.7915L40.0583 47.8911C46.783 48.2024 51.005 48.8022 65.2741 51.4738C74.2651 53.1571 78.5849 53.7962 84.1064 54.26L85.9206 54.4124L90.6883 54.4102L95.456 54.4081L97.6921 54.2575C100.384 54.0761 103.137 53.8423 106.076 53.5455C107.276 53.4243 108.275 53.3425 108.295 53.3638C108.316 53.385 103.727 56.4458 98.0972 60.1657L87.8615 66.9291L86.6379 66.9372C85.9649 66.9416 85.2245 66.9327 84.9924 66.9173ZM111.193 62.837C111.193 62.7611 118.892 49.8312 119.227 49.3444L119.39 49.1071H136.725H154.06V56.0115V62.9159H132.627H111.193V62.837ZM136.804 41.5942C133.692 41.4363 130.878 40.9412 128.408 40.1171L127.353 39.7652L126.329 39.2687C125.138 38.6909 124.375 38.2023 123.568 37.5014L122.99 36.9991L122.537 36.4368L122.084 35.8746L121.748 35.2154L121.413 34.5561L121.185 33.7837L120.957 33.0112L120.95 31.7597L120.943 30.5083L121.098 29.8179C121.183 29.4381 121.365 28.8281 121.502 28.4621L121.751 27.7969L122.18 27.1244L122.609 26.452L123.209 25.8412L123.809 25.2304L124.475 24.7727L125.142 24.315L126.078 23.8547L127.015 23.3944L127.901 23.0984C130.934 22.0853 134.199 21.6576 140.053 21.5063L142.373 21.4463L142.36 20.1085L142.347 18.7708L142.17 18.0878L141.993 17.4048L141.778 17.0287C141.659 16.8219 141.43 16.5174 141.268 16.352L140.974 16.0514L140.492 15.8031L140.01 15.5548L139.335 15.3936L138.66 15.2323L136.298 15.2426L133.935 15.253L132.824 15.3919C130.844 15.6394 129.441 16.032 127.564 16.8644L126.509 17.332L126.452 17.2747C126.421 17.2431 126.045 16.235 125.616 15.0343L124.837 12.8514L124.922 12.7646C124.969 12.7168 125.402 12.5407 125.884 12.3732C128.916 11.3205 133.503 10.708 138.391 10.7029L139.979 10.7013L141.218 10.7921C141.9 10.8421 142.984 10.9601 143.627 11.0543L144.796 11.2257L145.912 11.5184L147.029 11.811L147.908 12.1654L148.786 12.5198L149.461 12.9186C150.36 13.4494 150.947 13.9004 151.574 14.5418L152.093 15.0728L152.444 15.601C153.119 16.618 153.545 17.6375 153.859 18.9866L154.01 19.6339L154.038 29.317L154.066 39.0002L153.24 39.26C148.867 40.6362 144.989 41.368 140.854 41.5973C139.185 41.6898 138.681 41.6895 136.804 41.5942H136.804ZM141.23 36.0681L142.197 35.9754L142.349 35.8923L142.501 35.8092L142.479 30.958L142.458 26.1068L140.559 26.1191L138.66 26.1315L137.605 26.2727L136.551 26.4138L135.749 26.6275L134.947 26.8412L134.23 27.2004L133.513 27.5595L133.002 28.0846L132.492 28.6096L132.307 29.016C132.206 29.2395 132.085 29.589 132.039 29.7927L131.956 30.1631L131.954 30.8182L131.952 31.4732L132.115 32.126L132.278 32.7789L132.503 33.2331L132.728 33.6873L133.163 34.1609L133.597 34.6345L134.084 34.9588L134.571 35.2832L135.28 35.5456L135.989 35.8081L136.692 35.9385C137.655 36.1174 137.823 36.1318 139.124 36.1472L140.264 36.1607L141.231 36.0681H141.23ZM59.7196 41.5382C58.9527 41.4772 57.3721 41.2396 56.383 41.0366L55.367 40.8281L54.18 40.4372L52.9931 40.0463L51.7364 39.4018L50.4796 38.7572L49.59 38.0719L48.7004 37.3867L47.9867 36.6194L47.273 35.8521L46.7563 35.0789L46.2396 34.3057L45.8551 33.5211L45.4706 32.7365L45.1666 31.8432L44.8625 30.9499L44.6578 29.9092L44.453 28.8685L44.3556 27.7034L44.2582 26.5383L44.3137 25.4163L44.3691 24.2943L44.4947 23.4313C44.8341 21.0998 45.5405 19.1782 46.7334 17.3415L47.2625 16.5269L48.2382 15.5314L49.2139 14.5359L49.9733 14.0137C52.358 12.374 54.8974 11.4728 58.4712 10.9982L59.5086 10.8604L61.7026 10.8133L63.8966 10.7662L65.2467 10.8661C68.276 11.0904 70.6427 11.6236 72.7585 12.5585C74.5915 13.3685 75.8128 14.2185 77.1384 15.6067L77.7227 16.2187L78.2234 16.9338L78.724 17.6489L79.1427 18.5007C79.6702 19.5739 79.98 20.4313 80.2549 21.5791L80.4711 22.4819L80.6044 23.5176L80.7377 24.5533L80.7403 26.1554L80.7429 27.7576L80.6028 28.8741L80.4628 29.9905L80.223 30.9442C79.9418 32.063 79.6001 32.9743 79.0627 34.0395L78.6745 34.8088L78.1702 35.5067C77.8928 35.8904 77.3967 36.49 77.0678 36.8391L76.4697 37.4737L75.7103 38.0569C73.1642 40.012 70.0226 41.0922 65.6687 41.5094L64.7404 41.5984L62.4199 41.5834C61.1436 41.5751 59.9285 41.5548 59.7196 41.5382H59.7196ZM64.867 36.0369L65.4999 35.8868L66.2007 35.5446L66.9015 35.2024L67.3821 34.7098L67.8626 34.2172L68.1317 33.6982L68.4009 33.1791L68.6083 32.4473L68.8156 31.7154L68.9298 30.853L69.044 29.9905V26.0636V22.1367L68.9369 21.3934C68.878 20.9846 68.7724 20.4214 68.7021 20.142L68.5745 19.6339L68.2827 19.001L67.9909 18.3682L67.4626 17.828L66.9344 17.2877L66.3015 16.9808L65.6686 16.6739L65.103 16.5327L64.5374 16.3914L63.6051 16.3225L62.6728 16.2536L61.7158 16.3244L60.7587 16.3952L60.009 16.6174L59.2592 16.8396L58.8354 17.0708L58.4116 17.3021L57.884 17.8345L57.3563 18.367L57.0221 19.0867L56.688 19.8065L56.504 20.6695L56.32 21.5326L56.2825 25.4518L56.245 29.3709L56.3386 30.3712L56.4322 31.3714L56.6069 32.105L56.7817 32.8386L57.0814 33.4858L57.3812 34.1331L57.9395 34.6941L58.4977 35.2551L59.0693 35.5379L59.6409 35.8207L60.3342 35.9861C61.3485 36.228 61.4101 36.2334 62.884 36.2092L64.2341 36.187L64.867 36.0369ZM99.9283 41.4293C97.052 40.9615 94.6571 39.9565 92.4995 38.3117L91.7371 37.7305L90.8962 36.8363L90.0554 35.942L89.5387 35.167L89.0219 34.3921L88.5951 33.5207L88.1683 32.6493L87.8644 31.7564L87.5605 30.8636L87.3542 29.8214L87.1479 28.7792L87.0561 27.5152L86.9644 26.2512L87.0547 24.9363L87.145 23.6215L87.3528 22.572L87.5605 21.5225L87.8644 20.6297L88.1683 19.7369L88.5951 18.8655L89.0219 17.9941L89.5387 17.2196L90.0554 16.4452L90.8571 15.5896L91.6587 14.7339L92.3338 14.1981C93.2538 13.4678 93.8459 13.0942 95.0202 12.503L96.019 12.0001L97.053 11.6561L98.0871 11.312L99.1342 11.0972L100.181 10.8823L101.422 10.7819L102.662 10.6815L104.797 10.7781L106.932 10.8746L108.146 11.0067C109.767 11.183 111.526 11.4985 112.909 11.8612L114.044 12.1588L114.876 12.4747C115.334 12.6485 115.74 12.8209 115.778 12.858L115.849 12.9253L114.773 15.5029C114.181 16.9205 113.665 18.1244 113.625 18.1783L113.552 18.2762L112.605 17.9348C110.881 17.3134 108.948 16.9014 107.079 16.757L106.129 16.6836L105.265 16.7535L104.401 16.8233L103.726 17.0001L103.05 17.1769L102.46 17.4652L101.869 17.7534L101.337 18.1654L100.804 18.5774L100.386 19.1056L99.9678 19.6339L99.6252 20.307C99.1833 21.1749 98.918 21.9816 98.6842 23.1678L98.4961 24.1217L98.4981 26.1931L98.5001 28.2644L98.6487 29.0715C98.839 30.1053 99.1531 31.1249 99.5166 31.8892L99.804 32.4933L100.235 33.0801L100.665 33.6668L101.183 34.0992L101.7 34.5315L102.375 34.8664L103.05 35.2012L103.768 35.4004L104.485 35.5995L106.215 35.5913L107.945 35.583L108.957 35.3953C110.305 35.1455 111.475 34.8393 112.501 34.4679C112.966 34.3 113.402 34.156 113.471 34.1479L113.596 34.1331L114.71 36.7654C115.323 38.2132 115.826 39.4241 115.829 39.4562C115.837 39.5382 114.69 39.981 113.66 40.294C112.109 40.7651 110.21 41.131 107.987 41.3868L106.763 41.5276L103.852 41.5608L100.941 41.594L99.9283 41.4293V41.4293ZM1.85368 40.9298L0.566833 40.9036V20.7509V0.598162L0.690457 0.549641L0.814087 0.501122L14.1285 0.487621L27.4429 0.474121L28.6243 0.668493C31.2272 1.09675 33.0043 1.72958 34.625 2.80531L35.3096 3.25969L35.915 3.84387L36.5205 4.42805L36.9396 4.99709L37.3587 5.56613L37.7285 6.29972L38.0983 7.03332L38.3151 7.70068C38.6038 8.58934 38.7643 9.41558 38.881 10.615L38.9777 11.6075L38.9227 12.3411C38.8925 12.7446 38.8089 13.4436 38.7369 13.8946L38.606 14.7145L38.3945 15.4049L38.183 16.0954L37.857 16.7658C37.6777 17.1345 37.3723 17.6753 37.1783 17.9674L36.8256 18.4986L36.2053 19.1626L35.5851 19.8266L34.8472 20.3636C33.8735 21.0722 33.2383 21.4297 31.9153 22.014L30.8183 22.4983L30.8234 22.7059L30.8285 22.9135L35.7387 31.9246C38.4394 36.8808 40.6489 40.949 40.6489 40.9651C40.6489 40.9812 37.4973 40.9944 33.6453 40.9944H26.6417L25.0698 37.7795C22.7984 33.1341 19.4457 26.6423 18.6443 25.3379L18.4371 25.0005L15.7829 25.0558L13.1287 25.1112L13.05 25.161L12.9712 25.2107V33.1026V40.9944L8.05586 40.9752C5.35243 40.9647 2.56145 40.9443 1.85368 40.9298ZM16.4541 18.9862C16.9751 18.931 17.9139 18.7903 18.5405 18.6735L19.6797 18.461L20.6914 18.1157L21.7032 17.7704L22.3996 17.3915C23.2981 16.9026 23.938 16.3947 24.6822 15.5797L25.2811 14.9238L25.7467 13.9561L26.2124 12.9884L26.3425 12.4581L26.4725 11.9278V11.3758V10.8239L26.3433 10.3165L26.2141 9.80914L25.9451 9.28428L25.6761 8.75942L25.163 8.23765L24.6498 7.71589L23.9324 7.35238L23.2149 6.98887L22.3961 6.77644L21.5774 6.56401L20.6707 6.47048L19.7641 6.37695L16.3887 6.40306L13.0134 6.42918L12.9915 12.7295L12.9696 19.0297L13.0845 19.1163L13.1995 19.2028L14.3532 19.1446C14.9877 19.1126 15.9331 19.0413 16.4541 18.9862Z" fill="#2B76B3"/>
<path d="M85.1793 66.882C79.4179 66.6122 73.6355 65.8154 57.9897 63.135C44.5653 60.8352 40.6317 60.2853 36.0922 60.0739L34.3624 59.9933L31.5355 60.0701L28.7087 60.1468L26.7679 60.2809C19.8668 60.7579 13.0019 61.7789 4.19532 63.638C2.96543 63.8976 1.70048 64.1715 1.38433 64.2467C1.06818 64.3219 0.773638 64.3834 0.729797 64.3834H0.650085L0.671748 58.2341L0.693405 52.0849L2.59203 51.5895C10.3273 49.5715 16.0664 48.5881 22.8862 48.1124L24.6583 47.9887L29.2572 47.8869L33.8561 47.785L37.7377 47.884L41.6193 47.983L43.2226 48.1152C48.3965 48.5417 53.1698 49.2532 62.0598 50.9232C76.7556 53.6838 81.603 54.3331 88.8354 54.5098L91.1524 54.5664L93.8948 54.4656C97.8174 54.3215 100.897 54.1024 105.652 53.6293C106.851 53.51 107.905 53.4244 107.995 53.4391L108.158 53.4657L97.9677 60.1968L87.7771 66.9278L87.2286 66.94C86.9269 66.9468 86.0047 66.9207 85.1793 66.882ZM115.266 56.0333C117.498 52.2952 119.365 49.2082 119.415 49.1733L119.505 49.1097L136.762 49.1301L154.018 49.1505L154.04 55.9902L154.061 62.8299H132.634H111.207L115.266 56.0333ZM60.479 41.5474C56.6333 41.2096 54.4607 40.686 52.0463 39.5151L50.997 39.0063L50.1476 38.4317L49.2982 37.857L48.2406 36.772L47.183 35.6869L46.712 34.9533C45.8363 33.5892 45.2238 32.1501 44.8351 30.5435L44.6179 29.6455L44.4898 28.627L44.3618 27.6085V26.2718V24.9351L44.4509 24.097L44.5399 23.2589L44.7537 22.2732C45.0022 21.1274 45.3396 20.1033 45.8064 19.078L46.1383 18.3492L46.7021 17.4813L47.2659 16.6134L48.0711 15.7622L48.8763 14.911L49.5892 14.3631C50.8713 13.3777 52.4386 12.5666 54.1817 11.9863L55.1836 11.6528L56.1647 11.4417C56.7044 11.3256 57.5772 11.1694 58.1043 11.0947L59.0628 10.9587L60.678 10.8695L62.2933 10.7804L63.6856 10.8326C64.4514 10.8612 65.641 10.9416 66.3292 11.011L67.5804 11.1374L68.4809 11.3133C69.6582 11.5434 70.4859 11.7596 71.4582 12.0913L72.2505 12.3616L73.2767 12.8597L74.3028 13.3578L74.9643 13.8103C75.3282 14.0592 75.9396 14.5342 76.3232 14.8659L77.0205 15.469L77.5566 16.1275C78.2106 16.9307 78.7371 17.7571 79.2119 18.7255L79.5704 19.4567L79.8926 20.4603L80.2148 21.4638L80.387 22.4045C80.4816 22.9219 80.5978 23.7474 80.6451 24.239L80.731 25.1328V26.1933V27.2538L80.6451 28.1476C80.5978 28.6392 80.4825 29.46 80.3889 29.9717L80.2187 30.9021L79.9108 31.8696L79.6029 32.8371L79.1316 33.7873L78.6603 34.7375L78.2412 35.3417L77.8221 35.9458L77.0636 36.7511L76.3051 37.5564L75.7123 38.0105C75.3863 38.2603 74.7833 38.6707 74.3724 38.9226L73.6252 39.3807L72.6659 39.7964L71.7066 40.2122L70.7321 40.5144L69.7575 40.8166L68.6835 41.0298C68.0928 41.1471 67.0968 41.3062 66.4703 41.3834L65.3311 41.5238L63.0949 41.5523C61.865 41.5679 60.6879 41.5657 60.479 41.5474V41.5474ZM64.656 36.1194C65.4232 35.9697 66.1495 35.6894 66.7034 35.3292L67.1475 35.0403L67.5205 34.6421L67.8936 34.2439L68.19 33.6669L68.4865 33.09L68.6567 32.4466C68.7504 32.0927 68.8681 31.5507 68.9183 31.2422L69.0097 30.6812L69.0815 28.5074L69.1534 26.3335L69.0812 23.8469L69.009 21.3602L68.8403 20.5473L68.6715 19.7343L68.3443 19.0369L68.0172 18.3396L67.6023 17.8874L67.1875 17.4352L66.6812 17.1292L66.1749 16.8231L65.542 16.6191L64.9092 16.4151L64.1497 16.3204L63.3903 16.2256L62.6708 16.2253C61.8268 16.225 60.7955 16.3466 60.0929 16.5292L59.593 16.6592L58.9964 16.957L58.3997 17.2548L58.0132 17.6029L57.6266 17.9509L57.3201 18.4231L57.0137 18.8953L56.802 19.4705C56.6856 19.7869 56.5376 20.3026 56.4731 20.6167L56.3559 21.1876L56.2555 22.4622L56.1552 23.7368L56.201 26.9932L56.2468 30.2496L56.3393 30.9401L56.4319 31.6305L56.6447 32.4018L56.8574 33.173L57.1282 33.6963L57.399 34.2197L57.9053 34.7385L58.4116 35.2574L59.0445 35.5717L59.6774 35.8861L60.2473 36.0279C60.5608 36.1059 61.1114 36.2039 61.4709 36.2457L62.1245 36.3216L63.0949 36.2781L64.0653 36.2347L64.656 36.1194V36.1194ZM100.772 41.504C100.401 41.4646 99.6793 41.3487 99.1688 41.2466L98.2406 41.061L97.1104 40.6833L95.9801 40.3057L95.1274 39.8874C94.0875 39.3775 93.3076 38.8925 92.4359 38.2139L91.7751 37.6994L91.0333 36.932L90.2916 36.1647L89.7301 35.3648L89.1686 34.5649L88.6251 33.443L88.0815 32.321L87.8298 31.5262C87.536 30.5986 87.266 29.2767 87.146 28.1783L87.0612 27.4016L87.0603 26.2115L87.0595 25.0214L87.1495 24.1833C87.3433 22.3797 87.7969 20.6956 88.4972 19.1802L88.9063 18.2948L89.3604 17.5836C91.5858 14.0978 95.2404 11.7928 99.8014 10.9983L100.603 10.8587L102.434 10.8121L104.264 10.7655L105.893 10.8675L107.522 10.9694L108.873 11.1435C111.277 11.4536 113.465 11.9707 115.096 12.6137L115.75 12.8717V12.9589C115.75 13.0267 113.665 18.0891 113.595 18.1914C113.586 18.2048 113.013 18.0235 112.322 17.7884L111.067 17.3611L110.012 17.1424C109.432 17.0221 108.615 16.8745 108.198 16.8143L107.438 16.705L106.046 16.7061L104.653 16.7072L103.894 16.9004L103.135 17.0937L102.375 17.4724L101.616 17.8512L101.175 18.2382C100.598 18.7454 100.145 19.2865 99.7709 19.9165L99.4672 20.4278L99.1749 21.2018L98.8827 21.9758L98.7109 22.8379L98.5391 23.7L98.4384 24.9669L98.3377 26.2337L98.4384 27.5089L98.5392 28.7842L98.7392 29.6895L98.9392 30.5949L99.2063 31.3033L99.4734 32.0118L99.8805 32.6495L100.288 33.2873L100.802 33.7985L101.316 34.3097L101.78 34.5974C102.686 35.1595 103.697 35.4923 104.991 35.6542L105.75 35.7494L106.636 35.6923C107.124 35.6609 108.046 35.5584 108.687 35.4643L109.851 35.2934L110.796 35.0429C111.316 34.9051 112.133 34.6527 112.61 34.4818L113.479 34.1713L113.544 34.212C113.579 34.2344 114.096 35.4202 114.693 36.8471L115.778 39.4414L115.729 39.4908C115.703 39.5179 115.25 39.6956 114.724 39.8856C112.289 40.7641 109.436 41.2834 105.793 41.511L104.4 41.598L102.924 41.5869L101.447 41.5758L100.772 41.504L100.772 41.504ZM135.96 41.507C133.205 41.3085 130.51 40.7926 128.32 40.0444L127.268 39.6852L126.309 39.2191L125.35 38.7529L124.621 38.2586L123.893 37.7642L123.165 37.0276L122.436 36.291L122.096 35.749L121.755 35.207L121.502 34.5839L121.249 33.9608L121.116 33.2956L120.982 32.6303L120.983 31.6558L120.984 30.6812L121.141 29.9044L121.299 29.1277L121.551 28.4634L121.804 27.7992L122.275 27.0752L122.746 26.3512L123.337 25.7814L123.927 25.2116L124.577 24.7629L125.228 24.3142L126.079 23.9015C128.697 22.6326 132.089 21.9303 136.888 21.6637L138.407 21.5793L140.29 21.5776L142.173 21.576L142.336 21.4866L142.5 21.3973V20.8485C142.5 20.5467 142.46 19.8975 142.411 19.4059L142.322 18.5122L142.193 17.9943L142.064 17.4765L141.842 17.0588L141.621 16.6412L141.174 16.2235L140.727 15.8057L140.242 15.6179L139.757 15.4301L139.04 15.3003L138.323 15.1706L135.833 15.2159L133.344 15.2612L132.391 15.3996C130.62 15.6568 129.265 16.0566 127.497 16.8437L126.531 17.2742L126.468 17.2027C126.434 17.1634 126.073 16.191 125.666 15.0419L124.927 12.9524L124.973 12.8305L125.019 12.7086L126.059 12.3611C128.308 11.6102 131.061 11.1284 134.553 10.8745L135.846 10.7805L138.308 10.7795L140.77 10.7786L141.782 10.8745C143.918 11.0769 145.512 11.3896 147.069 11.9114L148.053 12.2409L148.841 12.6448C149.275 12.8669 149.89 13.2252 150.208 13.4409L150.786 13.8331L151.439 14.4897L152.093 15.1463L152.454 15.697C152.653 15.9999 152.965 16.5745 153.148 16.9738L153.481 17.6999L153.685 18.5233L153.89 19.3468L153.978 20.3103L154.067 21.2739L154.043 30.1171L154.018 38.9602L153.005 39.2871C149.515 40.4141 145.311 41.2404 141.698 41.51L140.517 41.5981L138.702 41.586C137.705 41.5793 136.47 41.5437 135.96 41.507L135.96 41.507ZM141.604 36.0673C142.016 36.0218 142.387 35.9639 142.427 35.9385L142.5 35.8925V30.9875V26.0826L142.307 26.0331L142.114 25.9836L140.092 26.0651L138.07 26.1466L137.226 26.2783C136.762 26.3508 136.078 26.4887 135.707 26.5849L135.032 26.7597L134.245 27.1447L133.459 27.5296L132.974 28.0266L132.489 28.5236L132.263 29.0131L132.037 29.5027L131.955 30.0996L131.872 30.6964L131.954 31.4319L132.035 32.1673L132.153 32.5092C132.218 32.6973 132.373 33.0574 132.498 33.3095L132.725 33.7679L133.119 34.2017L133.513 34.6354L134.007 34.9642L134.501 35.293L135.147 35.5479L135.794 35.8029L136.494 35.948C136.879 36.0278 137.543 36.1244 137.969 36.1627L138.745 36.2324L139.799 36.1912C140.38 36.1685 141.192 36.1128 141.604 36.0673ZM26.6618 40.8868C26.6153 40.8274 25.6821 38.9535 24.588 36.7225C22.6573 32.7854 21.001 29.5564 19.3644 26.5385L18.5687 25.0714L15.8105 25.0486L13.0523 25.0258L12.9695 25.2484L12.8868 25.471V33.1897V40.9084H6.76901H0.651213V20.7129V0.517534L9.27941 0.495958C14.0249 0.484091 19.9391 0.476744 22.4221 0.479632L26.9366 0.484879L28.0336 0.633631C28.637 0.715444 29.5629 0.88125 30.0912 1.00209L31.0517 1.22179L31.9054 1.52373L32.7591 1.82567L33.4989 2.20506C33.9058 2.41373 34.474 2.74785 34.7615 2.94756L35.2843 3.31067L35.9762 3.99002L36.668 4.66937L37.1038 5.31401L37.5395 5.95865L37.865 6.6692L38.1906 7.37974L38.4029 8.12917L38.6153 8.87861L38.7461 9.77957L38.8769 10.6805V11.6941V12.7076L38.7441 13.622L38.6114 14.5363L38.3542 15.3591L38.0971 16.1819L37.8012 16.7861C37.6385 17.1183 37.3173 17.6692 37.0875 18.0102L36.6696 18.6301L35.9355 19.354L35.2013 20.0778L34.5709 20.5106C33.6403 21.1495 32.9235 21.5385 31.8121 22.0079L30.8183 22.4277L30.7393 22.5547L30.6604 22.6818L34.1528 29.098C36.0736 32.627 38.2993 36.7168 39.0988 38.1865L40.5523 40.8588L40.5113 40.9267L40.4702 40.9947H33.6083H26.7463L26.6618 40.8868ZM14.9806 19.1567C15.6622 19.1078 16.7843 18.9895 17.4742 18.8938L18.7284 18.7199L19.6707 18.4714C21.9312 17.8753 23.432 17.0372 24.6771 15.6759L25.1962 15.1084L25.5435 14.5104L25.8909 13.9123L26.1978 13.0621L26.5046 12.2119L26.5025 11.392L26.5005 10.5721L26.3134 10.0111L26.1263 9.45012L25.7463 8.87409L25.3663 8.29806L25.0062 7.99627C24.8082 7.83029 24.4021 7.55781 24.1037 7.39076L23.5613 7.08702L22.9173 6.87303L22.2733 6.65904L21.3562 6.50651L20.4391 6.35397L16.7547 6.34855L13.0704 6.34313L12.9997 6.41502L12.929 6.48691L12.9063 12.6406L12.8835 18.7942L12.9675 19.02L13.0514 19.2458H13.3963C13.586 19.2458 14.2989 19.2057 14.9806 19.1567V19.1567Z" fill="#1366AA"/>
<path d="M85.3299 66.8292C78.158 66.3937 74.0664 65.8326 58.0741 63.0912C45.6765 60.966 41.6279 60.3796 37.147 60.0599L35.7125 59.9576L32.3793 60.0091L29.0462 60.0607L27.1476 60.1927C19.7216 60.709 12.3475 61.8124 3.43813 63.7403C2.02386 64.0464 0.818237 64.2967 0.75896 64.2967H0.651184V58.2122V52.1277H0.696744C0.721803 52.1277 1.77554 51.859 3.03838 51.5306C10.1957 49.6693 15.9766 48.6757 22.3799 48.2064L24.152 48.0766L27.1898 47.9774L30.2276 47.8782L35.3749 47.9244L40.5223 47.9706L41.8303 48.0667C48.3328 48.5447 52.1993 49.1246 65.4576 51.6101C74.1106 53.2322 78.7236 53.9134 83.8954 54.3325L85.6674 54.4761L87.936 54.5317L90.2045 54.5874L92.999 54.5303L95.7934 54.4732L97.9452 54.334C100.279 54.1831 103.047 53.9499 106.066 53.6499L107.984 53.4593L107.922 53.5228C107.888 53.5577 103.324 56.5787 97.7797 60.2361L87.6992 66.8859L86.7255 66.8703C86.19 66.8618 85.562 66.8433 85.3299 66.8292ZM112.144 61.3811C112.619 60.5845 114.451 57.5166 116.214 54.5637L119.421 49.1947L136.698 49.194L153.976 49.1933V56.0114V62.8296H132.628H111.281L112.144 61.3811V61.3811ZM59.9727 41.455C56.4046 41.0973 54.2541 40.5494 51.9564 39.4127L51.0705 38.9745L50.2031 38.3812L49.3356 37.788L48.5644 37.0393L47.7932 36.2907L47.2991 35.6569L46.8051 35.0231L46.3429 34.22L45.8808 33.4168L45.5145 32.4804C45.1168 31.4639 44.8671 30.5734 44.6598 29.4319L44.527 28.7007L44.44 27.4343L44.353 26.1679L44.4412 24.9693C44.4897 24.3101 44.5906 23.403 44.6655 22.9537L44.8017 22.1367L45.0928 21.1442L45.3839 20.1517L45.8454 19.1656L46.3069 18.1795L46.7899 17.4422L47.273 16.705L48.0746 15.8487L48.8763 14.9923L49.5109 14.4978C50.3647 13.8324 51.1537 13.344 52.1711 12.8509L53.0187 12.4401L54.0275 12.0965L55.0363 11.7529L56.0067 11.5337C57.2961 11.2425 58.488 11.0713 59.9727 10.964L61.1963 10.8756H62.5886H63.9809L65.2045 10.9637C65.8774 11.0123 66.95 11.1292 67.5881 11.2237L68.7481 11.3955L69.8793 11.687C71.3374 12.0626 72.2619 12.4067 73.5162 13.0409L74.5288 13.5528L75.3124 14.126L76.0959 14.6992L76.7925 15.3973C77.5938 16.2001 78.0767 16.828 78.6902 17.8646L79.1244 18.5982L79.458 19.4188C79.8897 20.4803 80.1905 21.5475 80.4067 22.784L80.5802 23.7765L80.6241 25.6378L80.668 27.4992L80.5679 28.3996C80.5129 28.8948 80.392 29.6884 80.2993 30.1631L80.1308 31.0261L79.8417 31.9135L79.5525 32.8009L79.1637 33.5964C78.9499 34.034 78.5624 34.7221 78.3027 35.1256L77.8304 35.8592L76.8547 36.8576L75.879 37.856L75.0341 38.4279L74.1893 38.9998L73.2199 39.4739L72.2505 39.948L71.2379 40.2906L70.2253 40.6332L69.2549 40.8523C68.0864 41.1162 66.8629 41.3017 65.4998 41.4214L64.4872 41.5104L62.3776 41.4975C61.2174 41.4904 60.1351 41.4712 59.9727 41.455ZM65.0703 36.085C65.4375 35.9846 65.9486 35.8036 66.2062 35.683L66.6746 35.4637L67.1225 35.1103L67.5703 34.7569L67.9732 34.1409L68.3761 33.5248L68.6075 32.8087L68.8389 32.0926L68.9738 31.2573L69.1088 30.422L69.1481 26.8074L69.1875 23.1929L69.0912 22.0798L68.995 20.9667L68.7922 20.1489L68.5894 19.3311L68.3122 18.792L68.0351 18.2529L67.5269 17.7343L67.0187 17.2157L66.5949 16.9845L66.1712 16.7533L65.4239 16.5318L64.6767 16.3103L63.6698 16.2163L62.663 16.1224L61.6579 16.2215L60.6527 16.3207L60.0385 16.4943L59.4242 16.6679L58.8764 16.9426L58.3287 17.2173L57.8142 17.7351L57.2997 18.2529L56.9907 18.9002L56.6816 19.5475L56.5205 20.1998C56.4319 20.5585 56.31 21.2382 56.2497 21.7101L56.14 22.5682L56.1437 26.193L56.1475 29.8178L56.2911 30.8966L56.4346 31.9755L56.7084 32.7954L56.9822 33.6153L57.3044 34.1116L57.6265 34.608L58.0183 34.9607L58.41 35.3134L59.0859 35.6438L59.7617 35.9743L60.3946 36.1083C60.7427 36.1821 61.1224 36.26 61.2384 36.2815C61.3545 36.303 62.1139 36.3087 62.9261 36.2942L64.4028 36.2678L65.0703 36.085H65.0703ZM100.266 41.384C99.081 41.2127 97.9783 40.9421 96.8482 40.5454L95.8778 40.2047L94.9514 39.7322L94.0249 39.2597L93.2215 38.7099L92.4181 38.1601L91.7519 37.5483C90.8694 36.7377 90.115 35.8577 89.4947 34.9154L88.987 34.1441L88.5797 33.2756C87.8979 31.8214 87.4453 30.2109 87.2321 28.4801L87.1417 27.7465L87.1408 26.1878L87.1399 24.6291L87.2662 23.709C87.4248 22.553 87.5842 21.8388 87.9154 20.7989L88.1766 19.979L88.5814 19.116L88.9862 18.2529L89.4961 17.4762C90.1206 16.5248 90.8719 15.646 91.7519 14.8378L92.4181 14.2259L93.2197 13.6798C94.2964 12.9464 94.9414 12.5955 96.0465 12.1421C97.5125 11.5408 98.8581 11.1868 100.561 10.9545L101.278 10.8567L103.33 10.8639L105.383 10.8712L106.537 10.9622C110.143 11.2465 113.424 11.919 115.373 12.7739L115.738 12.9339L114.68 15.464C114.098 16.8555 113.593 18.0256 113.558 18.0641L113.495 18.1342L112.625 17.8245C110.922 17.2182 109.072 16.8278 107.083 16.6552L105.979 16.5594L105.121 16.6559L104.263 16.7525L103.625 16.9194L102.987 17.0864L102.369 17.3903L101.751 17.6943L101.202 18.1462L100.654 18.5982L100.226 19.146L99.7974 19.6938L99.4167 20.4941L99.0361 21.2943L98.793 22.279L98.5498 23.2637L98.4474 24.1642L98.3451 25.0648L98.3934 26.794L98.4417 28.5233L98.6138 29.3811C99.0121 31.3665 99.6659 32.7482 100.699 33.7885C101.54 34.6345 102.545 35.1884 103.81 35.503L104.401 35.6499L105.244 35.7222L106.088 35.7946L107.016 35.7201C108.202 35.6249 108.971 35.5095 110.179 35.2454L111.148 35.0336L112.315 34.6364L113.483 34.2391L113.548 34.3156C113.584 34.3576 114.082 35.5139 114.654 36.885L115.695 39.3781L115.542 39.4927C115.457 39.5558 114.929 39.7624 114.367 39.9519C112.352 40.6313 110.579 40.9954 107.776 41.3059L106.594 41.4368L103.852 41.4714L101.11 41.506L100.266 41.384H100.266ZM135.918 41.4577C133.594 41.2482 131.568 40.9094 129.784 40.432L128.67 40.1341L127.779 39.7917C127.289 39.6034 126.506 39.2535 126.038 39.0142L125.188 38.5791L124.542 38.1253L123.897 37.6716L123.278 37.0734L122.66 36.4751L122.209 35.7788L121.758 35.0824L121.549 34.5646C121.434 34.2798 121.272 33.7749 121.189 33.4426L121.038 32.8385L121.037 31.7597L121.036 30.6809L121.14 30.1199C121.37 28.8696 121.856 27.707 122.533 26.7858L122.922 26.2567L123.458 25.7443L123.993 25.2318L124.605 24.8158C124.941 24.587 125.583 24.2144 126.032 23.9878L126.847 23.5758L127.708 23.2702C129.515 22.6295 131.995 22.1332 134.652 21.8803L136.044 21.7478L138.449 21.6634C139.772 21.6169 141.204 21.5782 141.632 21.5773L142.409 21.5757L142.486 21.4247L142.563 21.2736L142.495 20.0179L142.427 18.7621L142.301 18.2055C142.231 17.8993 142.097 17.464 142.002 17.2381L141.83 16.8274L141.428 16.388L141.026 15.9486L140.616 15.7358C140.39 15.6188 139.914 15.4398 139.559 15.3381L138.913 15.1533L136.382 15.154L133.85 15.1548L132.669 15.3085L131.488 15.4622L130.391 15.7496L129.294 16.037L128.028 16.5689C127.332 16.8614 126.702 17.12 126.629 17.1436L126.497 17.1863L126.006 15.821C125.737 15.07 125.388 14.0949 125.232 13.654L124.949 12.8525L125.349 12.6759C126.742 12.0614 129.742 11.4139 132.711 11.0871L133.85 10.9617L136.192 10.8573L138.533 10.753L140.411 10.856L142.289 10.959L143.259 11.0923C145.248 11.3653 147.21 11.9155 148.642 12.602L149.358 12.9453L150.085 13.4383L150.811 13.9313L151.447 14.5818L152.082 15.2323L152.487 15.8579L152.892 16.4834L153.175 17.1524L153.458 17.8215L153.63 18.5119C153.724 18.8917 153.841 19.5315 153.889 19.9337L153.976 20.665V29.7911V38.9172L153.026 39.2186C149.909 40.2085 146.818 40.8797 143.428 41.3031L142.289 41.4454L139.293 41.4687C137.645 41.4816 136.127 41.4766 135.918 41.4578V41.4577ZM141.398 36.1516L142.373 36.0556L142.479 35.9678L142.585 35.8801L142.564 30.9502L142.542 26.0204L141.234 25.9934L139.926 25.9664L138.719 26.0629C137.37 26.1709 136.456 26.319 135.505 26.5839L134.863 26.7629L134.176 27.1018L133.488 27.4406L133.016 27.882L132.544 28.3234L132.234 28.965L131.924 29.6067L131.885 30.5007L131.846 31.3946L131.988 32.0482L132.13 32.7018L132.393 33.2449L132.655 33.7879L133.253 34.3928L133.85 34.9978L134.483 35.3121C135.279 35.7072 136.084 35.9572 137.057 36.1109L137.816 36.2309L139.12 36.2392L140.423 36.2476L141.398 36.1516V36.1516ZM3.37255 40.8434L0.651184 40.8194V20.722V0.624676L11.0514 0.560385L21.4517 0.496094L24.4473 0.540484L27.4429 0.584875L28.5547 0.761895C31.2185 1.18604 33.0938 1.87353 34.7551 3.0349L35.4853 3.54542L36.15 4.25368C36.9779 5.13588 37.2651 5.56093 37.784 6.67195L38.1946 7.5511L38.404 8.371C38.5191 8.82195 38.6584 9.5016 38.7135 9.88134L38.8137 10.5718L38.8121 11.7369L38.8105 12.902L38.6714 13.7649L38.5323 14.6277L38.2361 15.5341L37.94 16.4405L37.64 17.0015C37.4751 17.3101 37.1525 17.8221 36.9232 18.1395L36.5062 18.7165L35.7931 19.4069L35.08 20.0973L34.3836 20.5682C33.5435 21.1363 32.7188 21.5684 31.5355 22.0603L30.6495 22.4286L30.6548 22.6279L30.6602 22.8271L35.5702 31.837C38.2706 36.7924 40.4801 40.8606 40.4801 40.8775C40.4801 40.8943 37.3759 40.905 33.5818 40.9014L26.6835 40.8947L24.892 37.2118C23.0336 33.3913 21.0776 29.567 19.499 26.6677L18.5827 24.9847H15.8824H13.1821L13.0344 25.0468L12.8868 25.1088V33.0084V40.908L9.49034 40.8877C7.62231 40.8765 4.8693 40.8566 3.37255 40.8434ZM15.0807 19.2005C16.2102 19.1306 17.7968 18.9287 18.8477 18.7213L19.7435 18.5445L20.5976 18.2583C21.7026 17.8881 22.4315 17.5468 23.1923 17.0435L23.8061 16.6374L24.3473 16.1074L24.8885 15.5775L25.2486 15.0597C25.723 14.3776 26.0629 13.6706 26.3482 12.7726L26.5813 12.039L26.5785 11.4315L26.5758 10.824L26.4415 10.2881C26.2777 9.63384 26.051 9.16051 25.6169 8.56579L25.2866 8.1133L24.6882 7.6835L24.0898 7.25371L23.4393 6.99712L22.7888 6.74054L21.9093 6.54433L21.0298 6.34812L16.9794 6.34547L12.929 6.34283L12.9073 12.7199L12.8857 19.097L12.9857 19.2203L13.0858 19.3436L13.6825 19.2969C14.0106 19.2712 14.6398 19.2278 15.0807 19.2005L15.0807 19.2005Z" fill="#075FA7"/>
</svg>
